<?xml version="1.0" encoding="UTF-8"?>
<svg version="1.1" xmlns="http://www.w3.org/2000/svg" width="225" height="225">
<path d="M0 0 C3.6529146 1.4499644 6.68422004 2.89357082 9.29296875 5.91015625 C10.15759418 8.92876082 10.34070747 11.77986005 10.29296875 14.91015625 C10.84984375 14.39453125 11.40671875 13.87890625 11.98046875 13.34765625 C14.29296875 11.91015625 14.29296875 11.91015625 16.421875 11.9765625 C20.65732272 13.35380332 23.93977984 15.83737568 27.54296875 18.41015625 C28.27515625 18.92191406 29.00734375 19.43367188 29.76171875 19.9609375 C35.06791052 23.68509802 35.06791052 23.68509802 36.29296875 24.91015625 C36.77303309 29.4193166 36.85154032 33.94206584 36.98046875 38.47265625 C37.05974609 39.73658203 37.13902344 41.00050781 37.22070312 42.30273438 C37.42682821 51.47290388 37.42682821 51.47290388 34.35864258 55.36206055 C31.77457163 57.46021627 29.14260305 59.19274825 26.29296875 60.91015625 C24.65905053 62.05276201 23.02994497 63.20228757 21.40625 64.359375 C19.80879299 65.44294657 18.20854074 66.5224091 16.60546875 67.59765625 C14.99693968 68.68422086 13.3888593 69.77145002 11.78125 70.859375 C11.02215332 71.37048828 10.26305664 71.88160156 9.48095703 72.40820312 C7.40960404 73.8300915 5.3877964 75.30418241 3.3671875 76.796875 C0.29296875 78.91015625 0.29296875 78.91015625 -2.20703125 79.03515625 C-5.79864961 77.41892799 -9.03844969 75.87364844 -11.70703125 72.91015625 C-12.59663105 70.10089371 -12.65633247 67.90138431 -12.70703125 64.91015625 C-13.26390625 65.44640625 -13.82078125 65.98265625 -14.39453125 66.53515625 C-15.15765625 66.98890625 -15.92078125 67.44265625 -16.70703125 67.91015625 C-18.80078125 67.265625 -18.80078125 67.265625 -21.70703125 65.91015625 C-22.6957019 65.50023438 -22.6957019 65.50023438 -23.7043457 65.08203125 C-29.65140238 62.4643013 -34.98983263 59.3613977 -38.70703125 53.91015625 C-41.9178597 44.6733516 -41.95702144 34.13753611 -38.70703125 24.91015625 C-34.39412874 18.80938112 -27.95002212 15.61727112 -21.40576172 12.34228516 C-16.52687925 9.75322015 -12.236183 6.31645988 -7.82226562 3.01708984 C-5.10961402 1.10419278 -3.38055964 -0.11219751 0 0 Z " fill="#BF6675" transform="translate(113.70703125,55.08984375)"/>
<path d="M0 0 C3.68494966 1.45392572 6.77085626 2.74694769 9.296875 5.90625 C10.08470457 9.97990536 10.17738294 14.14523412 8.296875 17.90625 C8.3896875 18.84210938 8.4825 19.77796875 8.578125 20.7421875 C8.83999393 24.97885273 8.70395642 27.87345413 7.296875 31.90625 C4.71353258 34.18229967 1.78685677 35.78062632 -1.203125 37.46875 C-7.15668598 40.82354768 -7.15668598 40.82354768 -10.60205078 46.47412109 C-11.56771449 52.60750421 -11.33421241 58.74600582 -10.703125 64.90625 C-18.37094812 68.01482694 -18.37094812 68.01482694 -20.87963867 67.19482422 C-28.64212924 63.35047073 -36.72807584 59.07530597 -39.95947266 50.61816406 C-41.78176573 41.99754029 -41.78817349 33.22934905 -38.703125 24.90625 C-34.35548347 18.82286706 -27.95556953 15.61809582 -21.40185547 12.33837891 C-16.522973 9.7493139 -12.23227675 6.31255363 -7.81835938 3.01318359 C-3.37921052 -0.11719805 -3.37921052 -0.11719805 0 0 Z " fill="#048174" transform="translate(113.703125,55.09375)"/>
<path d="M0 0 C4.25125889 0.03816211 7.18893113 1.18893113 10.25 4.25 C10.58 2.93 10.91 1.61 11.25 0.25 C14.6456697 0.16254054 18.04104773 0.10945556 21.4375 0.0625 C22.39720703 0.03736328 23.35691406 0.01222656 24.34570312 -0.01367188 C33.13777807 -0.10493909 33.13777807 -0.10493909 37.25 3.25 C37.765625 2.755 38.28125 2.26 38.8125 1.75 C42.15028661 -0.30402253 44.39399755 -0.16314312 48.25 0.25 C50.6875 1.75 50.6875 1.75 52.25 3.25 C52.91 2.26 53.57 1.27 54.25 0.25 C55.57 0.25 56.89 0.25 58.25 0.25 C58.25 4.54 58.25 8.83 58.25 13.25 C60.23 13.25 62.21 13.25 64.25 13.25 C64.25 8.96 64.25 4.67 64.25 0.25 C70.19 0.25 76.13 0.25 82.25 0.25 C82.745 1.735 82.745 1.735 83.25 3.25 C83.91 2.26 84.57 1.27 85.25 0.25 C87.109375 0.46484375 87.109375 0.46484375 89.25 1.25 C90.515625 3.31640625 90.515625 3.31640625 91.5 5.8125 C92.00273437 7.05193359 92.00273437 7.05193359 92.515625 8.31640625 C92.75796875 8.95449219 93.0003125 9.59257812 93.25 10.25 C93.31058594 9.61191406 93.37117188 8.97382813 93.43359375 8.31640625 C93.55927734 7.07697266 93.55927734 7.07697266 93.6875 5.8125 C93.80931641 4.57693359 93.80931641 4.57693359 93.93359375 3.31640625 C94.25 1.25 94.25 1.25 95.25 0.25 C97.5 -0.25 97.5 -0.25 100.25 0.25 C102.22873238 2.39496735 103.75232307 4.75174742 105.25 7.25 C105.58 4.94 105.91 2.63 106.25 0.25 C107.9 0.58 109.55 0.91 111.25 1.25 C111.25 6.53 111.25 11.81 111.25 17.25 C109.27 17.25 107.29 17.25 105.25 17.25 C103.5703125 15.5 103.5703125 15.5 102.375 13.25 C101.96507812 12.5075 101.55515625 11.765 101.1328125 11 C100.84148437 10.4225 100.55015625 9.845 100.25 9.25 C99.92 11.89 99.59 14.53 99.25 17.25 C96.28 17.25 93.31 17.25 90.25 17.25 C89.755 16.26 89.755 16.26 89.25 15.25 C87.6 15.25 85.95 15.25 84.25 15.25 C83.92 15.91 83.59 16.57 83.25 17.25 C79.95 17.25 76.65 17.25 73.25 17.25 C73.25 13.29 73.25 9.33 73.25 5.25 C71.93 5.25 70.61 5.25 69.25 5.25 C69.25 9.21 69.25 13.17 69.25 17.25 C63.97 17.25 58.69 17.25 53.25 17.25 C52.755 16.26 52.755 16.26 52.25 15.25 C50.950625 16.0234375 50.950625 16.0234375 49.625 16.8125 C45.77001375 18.45443859 44.19557335 18.5366 40.25 17.25 C38 15.3125 38 15.3125 36.25 13.25 C34.35244856 10.90026182 34.35244856 10.90026182 31.125 11.125 C30.17625 11.16625 29.2275 11.2075 28.25 11.25 C28.25 13.23 28.25 15.21 28.25 17.25 C22.64 17.25 17.03 17.25 11.25 17.25 C10.92 15.93 10.59 14.61 10.25 13.25 C9.610625 13.91 8.97125 14.57 8.3125 15.25 C4.20535747 17.93221553 1.01620171 17.62381974 -3.75 17.25 C-5.24341703 14.26316593 -4.88175178 11.50600226 -4.875 8.1875 C-4.87757812 6.91777344 -4.88015625 5.64804688 -4.8828125 4.33984375 C-4.6897424 -0.15187533 -4.62388112 0.30825874 0 0 Z M-0.75 4.25 C-0.75 7.55 -0.75 10.85 -0.75 14.25 C2.715 13.755 2.715 13.755 6.25 13.25 C6.92673447 9.84679066 6.92673447 9.84679066 7.25 6.25 C5.35244856 3.90026182 5.35244856 3.90026182 2.125 4.125 C1.17625 4.16625 0.2275 4.2075 -0.75 4.25 Z M15.25 4.25 C15.25 5.24 15.25 6.23 15.25 7.25 C17.56 7.25 19.87 7.25 22.25 7.25 C22.25 8.24 22.25 9.23 22.25 10.25 C19.94 10.25 17.63 10.25 15.25 10.25 C15.25 11.57 15.25 12.89 15.25 14.25 C17.89 14.25 20.53 14.25 23.25 14.25 C23.25 10.62 23.25 6.99 23.25 3.25 C20.59223434 3.25 17.87576483 3.86807057 15.25 4.25 Z M28.25 4.25 C28.25 5.24 28.25 6.23 28.25 7.25 C29.57 6.92 30.89 6.59 32.25 6.25 C30.93 5.59 29.61 4.93 28.25 4.25 Z M43.25 4.25 C41.58378575 5.4145201 41.58378575 5.4145201 40.25 7.25 C40.49205349 10.56818985 40.49205349 10.56818985 42.25 13.25 C44.75 13.41666667 44.75 13.41666667 47.25 13.25 C48.60618499 12.12465895 48.60618499 12.12465895 48.3125 9.1875 C48.291875 8.218125 48.27125 7.24875 48.25 6.25 C45.775 5.26 45.775 5.26 43.25 4.25 Z M53.25 5.25 C53.25 7.56 53.25 9.87 53.25 12.25 C53.58 12.25 53.91 12.25 54.25 12.25 C54.25 9.94 54.25 7.63 54.25 5.25 C53.92 5.25 53.59 5.25 53.25 5.25 Z M78.25 5.25 C78.25 8.55 78.25 11.85 78.25 15.25 C81.42237222 10.6257505 81.42237222 10.6257505 82.25 5.25 C80.93 5.25 79.61 5.25 78.25 5.25 Z M86.25 8.25 C87.25 10.25 87.25 10.25 87.25 10.25 Z " fill="#050505" transform="translate(74.75,138.75)"/>
<path d="M0 0 C4.21603207 1.44798894 7.53913725 3.95435143 11.14453125 6.53515625 C11.88509766 7.05529297 12.62566406 7.57542969 13.38867188 8.11132812 C15.20851309 9.39108743 17.02257309 10.67827843 18.83203125 11.97265625 C15.21484375 18.80859375 15.21484375 18.80859375 11.76953125 20.28515625 C10.31546875 20.62546875 10.31546875 20.62546875 8.83203125 20.97265625 C7.84203125 21.63265625 6.85203125 22.29265625 5.83203125 22.97265625 C4.84203125 22.97265625 3.85203125 22.97265625 2.83203125 22.97265625 C2.60515625 23.57078125 2.37828125 24.16890625 2.14453125 24.78515625 C0.4508976 27.607879 -1.29371799 28.37585027 -4.16796875 29.97265625 C-5.96993612 31.28749838 -7.74953178 32.62684147 -9.51953125 33.984375 C-11.16796875 34.97265625 -11.16796875 34.97265625 -14.16796875 34.97265625 C-14.16796875 35.63265625 -14.16796875 36.29265625 -14.16796875 36.97265625 C-14.82796875 36.97265625 -15.48796875 36.97265625 -16.16796875 36.97265625 C-16.43609375 37.50890625 -16.70421875 38.04515625 -16.98046875 38.59765625 C-18.16796875 40.97265625 -18.16796875 40.97265625 -19.85546875 43.66015625 C-21.61960053 48.11248883 -20.97560018 51.35076547 -20.16796875 55.97265625 C-19.97706363 57.32634707 -19.78920106 58.68047324 -19.60546875 60.03515625 C-19.46109375 61.00453125 -19.31671875 61.97390625 -19.16796875 62.97265625 C-18.50796875 62.97265625 -17.84796875 62.97265625 -17.16796875 62.97265625 C-17.49796875 64.29265625 -17.82796875 65.61265625 -18.16796875 66.97265625 C-21.57552147 65.04385283 -24.9094451 63.14500535 -28.16796875 60.97265625 C-28.9111754 56.32544577 -28.71711139 51.60691969 -28.60546875 46.91015625 C-28.59197388 46.24203918 -28.578479 45.57392212 -28.5645752 44.88555908 C-28.19002568 32.26078939 -28.19002568 32.26078939 -24.59375 28.15625 C-21.50980052 25.91441219 -18.69440141 24.39575978 -15.16796875 22.97265625 C-12.29124959 21.87061581 -12.29124959 21.87061581 -10.16796875 19.97265625 C-9.49333713 16.69083996 -9.49333713 16.69083996 -9.60546875 13.03515625 C-9.59861248 6.51484677 -9.59861248 6.51484677 -7.328125 3.65625 C-2.59493398 -0.0327289 -2.59493398 -0.0327289 0 0 Z " fill="#E9798B" transform="translate(130.16796875,67.02734375)"/>
<path d="M0 0 C0.33 0 0.66 0 1 0 C1.02698189 1.62490954 1.04638757 3.24994633 1.0625 4.875 C1.07410156 5.77992187 1.08570312 6.68484375 1.09765625 7.6171875 C1 10 1 10 0 12 C0.0928125 12.93585938 0.185625 13.87171875 0.28125 14.8359375 C0.54311893 19.07260273 0.40708142 21.96720413 -1 26 C-3.58334242 28.27604967 -6.51001823 29.87437632 -9.5 31.5625 C-15.45356098 34.91729768 -15.45356098 34.91729768 -18.89892578 40.56787109 C-19.86458949 46.70125421 -19.63108741 52.83975582 -19 59 C-21.31 59.66 -23.62 60.32 -26 61 C-26.26200753 56.45943197 -26.42142326 51.92080597 -26.5625 47.375 C-26.63791016 46.08980469 -26.71332031 44.80460937 -26.79101562 43.48046875 C-27.00960579 34.10537962 -27.00960579 34.10537962 -23.95654297 30.76269531 C-21.68868518 29.25079012 -19.51507316 28.04156731 -17 27 C-19.96283313 24.61327331 -22.94270509 22.2646629 -26 20 C-25.00323046 15.02722753 -22.60022342 11.53004363 -19 8 C-13.38046455 4.62827873 -7.30755585 2.64544935 -1 1 C-0.67 0.67 -0.34 0.34 0 0 Z " fill="#04221C" transform="translate(122,61)"/>
<path d="M0 0 C3.06187827 1.23530951 5.59537633 2.98899951 8.265625 4.9140625 C7.935625 5.9040625 7.605625 6.8940625 7.265625 7.9140625 C4.28125 9.1953125 4.28125 9.1953125 0.515625 10.4140625 C-8.48561717 13.35170639 -12.28984386 16.12225984 -17.296875 23.9765625 C-18.22705598 25.43132973 -19.1655832 26.88080172 -20.11328125 28.32421875 C-20.5213501 28.96496338 -20.92941895 29.60570801 -21.34985352 30.26586914 C-22.734375 31.9140625 -22.734375 31.9140625 -26.734375 33.9140625 C-30.034375 31.6040625 -33.334375 29.2940625 -36.734375 26.9140625 C-36.76123548 31.20577045 -36.78114607 35.49731195 -36.796875 39.7890625 C-36.80525391 41.01238281 -36.81363281 42.23570313 -36.82226562 43.49609375 C-36.82548828 44.66269531 -36.82871094 45.82929687 -36.83203125 47.03125 C-36.83726807 48.11003418 -36.84250488 49.18881836 -36.84790039 50.30029297 C-36.91320606 52.89638436 -36.91320606 52.89638436 -35.734375 54.9140625 C-36.724375 54.5840625 -37.714375 54.2540625 -38.734375 53.9140625 C-41.88821568 29.66830573 -41.88821568 29.66830573 -37.02929688 22.34375 C-32.46386903 17.98639796 -27.04199372 15.15308312 -21.43310547 12.34619141 C-16.554223 9.7571264 -12.26352675 6.32036613 -7.84960938 3.02099609 C-5.12380534 1.09882425 -3.39586471 -0.10672718 0 0 Z " fill="#399388" transform="translate(113.734375,55.0859375)"/>
<path d="M0 0 C0.33 0.99 0.66 1.98 1 3 C-0.2578125 5.12890625 -0.2578125 5.12890625 -2.125 7.5625 C-5.31073096 11.87783277 -7.68989007 16.16978709 -9.859375 21.06640625 C-11 23 -11 23 -14 24 C-16.26171875 22.78515625 -16.26171875 22.78515625 -18.6875 21.0625 C-19.49574219 20.49660156 -20.30398437 19.93070313 -21.13671875 19.34765625 C-21.75160156 18.90292969 -22.36648437 18.45820312 -23 18 C-22.00362249 13.02918329 -19.6025236 9.52557649 -16 6 C-10.93964619 2.97712393 -5.80666778 0.99752882 0 0 Z " fill="#024037" transform="translate(119,63)"/>
<path d="M0 0 C2.76692708 1.82291667 5.53385417 3.64583333 8.30078125 5.46875 C10.91767639 7.2467127 10.91767639 7.2467127 14 7 C14.33 7.99 14.66 8.98 15 10 C15.99 10.66 16.98 11.32 18 12 C18 12.99 18 13.98 18 15 C17.01 15.33 16.02 15.66 15 16 C14.67 16.66 14.34 17.32 14 18 C13.34 18 12.68 18 12 18 C12 18.66 12 19.32 12 20 C9.03812728 22.17204 6.49314009 23.83561997 3 25 C2.67 25.66 2.34 26.32 2 27 C1.34 26.67 0.68 26.34 0 26 C0 17.42 0 8.84 0 0 Z " fill="#029080" transform="translate(76,81)"/>
<path d="M0 0 C3.63 2.31 7.26 4.62 11 7 C7.62722811 10.66186662 5.77737198 12.08905121 1 14 C1.33 23.57 1.66 33.14 2 43 C0.68 42.34 -0.64 41.68 -2 41 C-1.34 41 -0.68 41 0 41 C-0.05170854 36.56153524 -0.14674916 32.12504143 -0.25 27.6875 C-0.26417969 26.42486328 -0.27835937 25.16222656 -0.29296875 23.86132812 C-0.32519531 22.65283203 -0.35742188 21.44433594 -0.390625 20.19921875 C-0.41157227 19.08377686 -0.43251953 17.96833496 -0.45410156 16.8190918 C-0.73688393 13.87065385 -0.73688393 13.87065385 -3.03808594 12.11254883 C-3.68551758 11.74540771 -4.33294922 11.3782666 -5 11 C-4.46884894 6.48521602 -2.63379708 3.65333143 0 0 Z " fill="#057165" transform="translate(95,80)"/>
<path d="M0 0 C2.93052231 1.99524923 4.64521503 3.42836485 5.4453125 6.97265625 C5.63624174 10.37756097 5.2680298 12.5979553 3.375 15.4375 C0.4340868 17.37231132 -1.47650456 17.92809193 -5 18 C-7.87872577 16.6260627 -9.74989437 15.25010563 -12 13 C-12.55980872 8.12166689 -12.74549961 6.08436307 -9.9375 2 C-6.22192774 -0.52975133 -4.4117517 -0.7878128 0 0 Z M-7.25 4.6875 C-9.28729536 6.86646986 -9.28729536 6.86646986 -8.875 9.625 C-8.13532087 12.14405125 -8.13532087 12.14405125 -6 14 C-3.16613833 14.3633156 -1.59477849 14.3568671 0.875 12.875 C2.27768837 10.92608819 2.27768837 10.92608819 1.875 7.9375 C1.25349587 4.70744585 1.25349587 4.70744585 -2 3 C-5.06875 2.7 -5.06875 2.7 -7.25 4.6875 Z " fill="#070707" transform="translate(65,139)"/>
<path d="M0 0 C0.99 0.495 0.99 0.495 2 1 C1.01 1.495 1.01 1.495 0 2 C0 1.34 0 0.68 0 0 Z M0 2 C-2.01877466 5.028162 -2.81408973 5.66941791 -5.9375 7.1875 C-6.62714844 7.53167969 -7.31679687 7.87585938 -8.02734375 8.23046875 C-10 9 -10 9 -13 9 C-13.226875 9.598125 -13.45375 10.19625 -13.6875 10.8125 C-15.38113365 13.63522275 -17.12574924 14.40319402 -20 16 C-21.80196737 17.31484213 -23.58156303 18.65418522 -25.3515625 20.01171875 C-27 21 -27 21 -30 21 C-30 21.66 -30 22.32 -30 23 C-30.66 22.67 -31.32 22.34 -32 22 C-30.625 19.5 -30.625 19.5 -29 17 C-28.34 17 -27.68 17 -27 17 C-26.938125 15.948125 -26.87625 14.89625 -26.8125 13.8125 C-26.28125 11.87890625 -26.28125 11.87890625 -25 10 C-20.84487735 7.7998859 -16.4598017 6.45463066 -12 5 C-10.6574546 4.41659022 -9.32136244 3.8174178 -8 3.1875 C-5.0603133 2.02387401 -3.12233995 1.71615091 0 2 Z " fill="#D96F7F" transform="translate(146,81)"/>
<path d="M0 0 C3.61974263 1.19797473 6.48750722 3.20014629 9.55078125 5.40625 C10.14826172 5.82261719 10.74574219 6.23898438 11.36132812 6.66796875 C12.84374698 7.71498001 14.29427803 8.80686248 15.73828125 9.90625 C15.73828125 10.23625 15.73828125 10.56625 15.73828125 10.90625 C13.55078125 11.21875 13.55078125 11.21875 10.73828125 10.90625 C7.92578125 8.40625 7.92578125 8.40625 5.73828125 5.90625 C5.40828125 6.56625 5.07828125 7.22625 4.73828125 7.90625 C4.07828125 7.90625 3.41828125 7.90625 2.73828125 7.90625 C2.40828125 9.55625 2.07828125 11.20625 1.73828125 12.90625 C-3.25446932 11.62903474 -5.83783783 9.73294043 -9.26171875 5.90625 C-3.41548826 -0.14157464 -3.41548826 -0.14157464 0 0 Z " fill="#FA8596" transform="translate(130.26171875,67.09375)"/>
<path d="M0 0 C1.86323318 0.25288812 3.71708432 0.57690153 5.5625 0.9375 C6.57441406 1.13214844 7.58632812 1.32679687 8.62890625 1.52734375 C9.80259766 1.76130859 9.80259766 1.76130859 11 2 C6.90328622 6.49316995 2.28565938 9.97813973 -3 13 C-3.66 13 -4.32 13 -5 13 C-5.33 12.34 -5.66 11.68 -6 11 C-7.94999129 11.19471111 -7.94999129 11.19471111 -10 12 C-11.28436734 13.9837767 -11.28436734 13.9837767 -12 16 C-12.96757195 11.77786786 -12.96757195 11.77786786 -12 9 C-8.61109888 5.89624913 -4.86362761 3.47127507 -1 1 C-0.67 0.67 -0.34 0.34 0 0 Z " fill="#0D1210" transform="translate(108,85)"/>
<path d="M0 0 C0.66 0.99 1.32 1.98 2 3 C2.99 3 3.98 3 5 3 C4.6875 5.375 4.6875 5.375 4 8 C3.01 8.66 2.02 9.32 1 10 C-0.05104383 11.63495707 -1.05988318 13.29883624 -2 15 C-5.59391114 13.66511872 -8.75490696 12.03977277 -12 10 C-8.29909479 6.0747975 -4.45040344 3.05419844 0 0 Z " fill="#E87F90" transform="translate(115,90)"/>
<path d="M0 0 C0.99 0.66 1.98 1.32 3 2 C2.67 2.99 2.34 3.98 2 5 C-0.97 4.67 -3.94 4.34 -7 4 C-7 6.64 -7 9.28 -7 12 C-4.69 12.66 -2.38 13.32 0 14 C0 13.34 0 12.68 0 12 C0.99 12.33 1.98 12.66 3 13 C3 13.99 3 14.98 3 16 C0.42183113 17.6857258 -0.87530993 18.00779313 -4 17.8125 C-8.81530343 16.50835532 -8.81530343 16.50835532 -11 14 C-11.91159981 11.28872573 -12.25022177 8.85252823 -12 6 C-8.67713817 0.6146722 -6.19090683 -0.37903511 0 0 Z " fill="#060606" transform="translate(50,139)"/>
<path d="M0 0 C-0.99012085 0.68775513 -0.99012085 0.68775513 -2.00024414 1.3894043 C-5.02132493 3.48829667 -8.04191607 5.58789266 -11.0625 7.6875 C-12.10083984 8.40873047 -13.13917969 9.12996094 -14.20898438 9.87304688 C-19.49677124 13.54931774 -24.7714544 17.23989699 -30 21 C-30.66 20.67 -31.32 20.34 -32 20 C-30.8758824 18.70756532 -29.75067408 17.41607925 -28.625 16.125 C-27.99851562 15.40570313 -27.37203125 14.68640625 -26.7265625 13.9453125 C-23.80544771 10.65410172 -22.36745444 9.63913967 -18 9 C-17.01 9 -16.02 9 -15 9 C-15.12375 7.6078125 -15.12375 7.6078125 -15.25 6.1875 C-15 3 -15 3 -13 1.125 C-12.34 0.75375 -11.68 0.3825 -11 0 C-10.01 0.99 -9.02 1.98 -8 3 C-7.34 2.01 -6.68 1.02 -6 0 C-3 -1 -3 -1 0 0 Z " fill="#AD6673" transform="translate(144,113)"/>
<path d="M0 0 C0.99 0.33 1.98 0.66 3 1 C2.67 1.66 2.34 2.32 2 3 C2.06257715 4.98147958 2.06257715 4.98147958 2.375 7.1875 C2.47425781 7.98414062 2.57351562 8.78078125 2.67578125 9.6015625 C3.09968141 12.73740224 3.53384774 15.87012057 4 19 C4.66 19 5.32 19 6 19 C5.67 20.32 5.34 21.64 5 23 C-1.48 19.76 -1.48 19.76 -3.625 16.625 C-4.14589521 12.97873354 -2.70728429 11.22487033 -1 8 C-0.46764909 5.32372678 -0.23497085 2.72566186 0 0 Z " fill="#DC717F" transform="translate(107,111)"/>
<path d="M0 0 C-2.54129779 1.75053767 -5.08302577 3.50044506 -7.625 5.25 C-8.33785156 5.74113281 -9.05070312 6.23226562 -9.78515625 6.73828125 C-13.83554752 9.52524772 -17.90119913 12.28470605 -22 15 C-18.42642836 6.87824628 -14.63320293 3.30599852 -6.62109375 -0.25 C-3.80619657 -1.05545493 -2.72421028 -0.811359 0 0 Z " fill="#0A7465" transform="translate(118,65)"/>
<path d="M0 0 C2.6864076 5.3728152 4.6333821 9.91953183 4 16 C3.04788888 18.02323613 2.05226728 20.02699884 1 22 C1 22.99 1 23.98 1 25 C0.34 25 -0.32 25 -1 25 C-0.67 16.75 -0.34 8.5 0 0 Z " fill="#EA828F" transform="translate(103,103)"/>
<path d="M0 0 C1.32 0 2.64 0 4 0 C4 2.75 4 2.75 3 6 C-0.80249049 8.85186787 -5.30176217 10.41272027 -10 11 C-6.02985075 4.47761194 -6.02985075 4.47761194 -2 3 C-1.34 2.67 -0.68 2.34 0 2 C0 1.34 0 0.68 0 0 Z " fill="#389F94" transform="translate(101,63)"/>
<path d="M0 0 C0.33 0 0.66 0 1 0 C1.11613204 3.10385211 1.18722029 6.20714662 1.25 9.3125 C1.30027344 10.63411133 1.30027344 10.63411133 1.3515625 11.98242188 C1.45066069 18.49812787 1.45066069 18.49812787 -0.890625 21.10546875 C-3 22 -3 22 -5 22 C-4.24409449 16.45669291 -4.24409449 16.45669291 -3.03125 14.1875 C-1.72019097 11.40646569 -1.33679492 8.78465232 -0.875 5.75 C-0.62363281 4.13351563 -0.62363281 4.13351563 -0.3671875 2.484375 C-0.24601562 1.66453125 -0.12484375 0.8446875 0 0 Z " fill="#0D0F0E" transform="translate(101,100)"/>
<path d="M0 0 C3.465 1.98 3.465 1.98 7 4 C7 5.32 7 6.64 7 8 C1.77777778 12 1.77777778 12 0 12 C0 8.04 0 4.08 0 0 Z " fill="#9B525E" transform="translate(121,74)"/>
<path d="M0 0 C0.66 0 1.32 0 2 0 C2 6.93 2 13.86 2 21 C-1.47062897 17.52937103 -1.87828085 12.55191913 -2.25 7.8125 C-1.98745724 4.85889393 -1.25753433 2.67226045 0 0 Z " fill="#C76370" transform="translate(110,109)"/>
<path d="M0 0 C-1.5277867 3.43752007 -3.50181056 6.18953688 -6 9 C-6.66 9 -7.32 9 -8 9 C-8.33 9.99 -8.66 10.98 -9 12 C-10.32 12 -11.64 12 -13 12 C-12.71330918 8.61236761 -12.34152464 7.31140782 -9.78515625 4.98046875 C-8.88667969 4.38878906 -7.98820312 3.79710938 -7.0625 3.1875 C-6.16660156 2.58292969 -5.27070312 1.97835937 -4.34765625 1.35546875 C-2 0 -2 0 0 0 Z " fill="#F38598" transform="translate(129,82)"/>
<path d="M0 0 C1.88372214 3.17596839 2.20001885 5.31969081 1.9765625 8.984375 C1.925 9.91894531 1.8734375 10.85351562 1.8203125 11.81640625 C1.75585938 12.78449219 1.69140625 13.75257812 1.625 14.75 C1.56828125 15.73355469 1.5115625 16.71710938 1.453125 17.73046875 C1.31192448 20.154411 1.16054205 22.57727459 1 25 C0.67 25 0.34 25 0 25 C0 18.4 0 11.8 0 5 C-1.65 5.33 -3.3 5.66 -5 6 C-4.67 4.35 -4.34 2.7 -4 1 C-2.68 0.67 -1.36 0.34 0 0 Z " fill="#3F2D30" transform="translate(102,95)"/>
<path d="M0 0 C0.33 0 0.66 0 1 0 C1.36542427 2.37374776 1.71756139 4.74826172 2.0625 7.125 C2.16626953 7.79015625 2.27003906 8.4553125 2.37695312 9.140625 C2.97408631 13.34114812 2.92199443 16.86069634 2 21 C2.66 21.33 3.32 21.66 4 22 C3.34 22.66 2.68 23.32 2 24 C1.34 23.67 0.68 23.34 0 23 C0 15.41 0 7.82 0 0 Z " fill="#089884" transform="translate(76,84)"/>
<path d="M0 0 C0.33 0 0.66 0 1 0 C1.02698189 1.62490954 1.04638757 3.24994633 1.0625 4.875 C1.07410156 5.77992187 1.08570312 6.68484375 1.09765625 7.6171875 C1 10 1 10 0 12 C-0.27755815 15.63469004 -0.44735896 19.26911868 -0.62109375 22.91015625 C-0.80865234 24.43962891 -0.80865234 24.43962891 -1 26 C-1.66 26.33 -2.32 26.66 -3 27 C-3.05382106 24.37472811 -3.09358313 21.75055287 -3.125 19.125 C-3.14175781 18.37863281 -3.15851563 17.63226563 -3.17578125 16.86328125 C-3.1933959 14.90805539 -3.10320189 12.95257979 -3 11 C-2.34 10.34 -1.68 9.68 -1 9 C-0.53993654 6.79749008 -0.53993654 6.79749008 -0.375 4.375 C-0.30023438 3.55773437 -0.22546875 2.74046875 -0.1484375 1.8984375 C-0.09945312 1.27195313 -0.05046875 0.64546875 0 0 Z " fill="#312B2B" transform="translate(122,61)"/>
<path d="M0 0 C-0.625 2.375 -0.625 2.375 -2 5 C-3.98723268 5.70381157 -5.98777953 6.3711811 -8 7 C-9.42055068 9.00136244 -9.42055068 9.00136244 -10 11 C-10.4375 7.8125 -10.4375 7.8125 -10 4 C-6.96664336 0.6323218 -4.44639638 -1.48213213 0 0 Z " fill="#032320" transform="translate(106,90)"/>
<path d="M0 0 C0.66 0 1.32 0 2 0 C2.07421454 3.93260944 2.12863136 7.86494722 2.16479492 11.7980957 C2.18728333 13.79327701 2.22540198 15.78826213 2.26367188 17.78320312 C2.27817383 19.66362305 2.27817383 19.66362305 2.29296875 21.58203125 C2.3086792 22.73936768 2.32438965 23.8967041 2.34057617 25.08911133 C2 28 2 28 0.60668945 29.90112305 C-1 31 -1 31 -3 31 C-3 30.01 -3 29.02 -3 28 C-1.68 27.67 -0.36 27.34 1 27 C0.67 18.09 0.34 9.18 0 0 Z " fill="#AC7179" transform="translate(148,80)"/>
<path d="M0 0 C2.95662966 0.22743305 4.55033688 0.61235938 6.8125 2.5625 C7.204375 3.036875 7.59625 3.51125 8 4 C1.375 4.25 1.375 4.25 -2 2 C-1.34 1.34 -0.68 0.68 0 0 Z " fill="#EB929F" transform="translate(128,67)"/>
<path d="M0 0 C0.99 0.495 0.99 0.495 2 1 C1.01 1.495 1.01 1.495 0 2 C0 1.34 0 0.68 0 0 Z M-2.4375 1.9375 C-1.2309375 1.9684375 -1.2309375 1.9684375 0 2 C-2.40436026 5.60654039 -3.94679607 5.85452932 -8 7 C-5.58757962 2.01433121 -5.58757962 2.01433121 -2.4375 1.9375 Z " fill="#CF6B7A" transform="translate(146,81)"/>
<path d="M0 0 C3.57967992 1.65215996 6.77982952 3.73124352 10 6 C10 6.33 10 6.66 10 7 C7.8125 7.375 7.8125 7.375 5 7 C2.96237639 5.16613875 1.61191578 3.25668209 0 1 C0 0.67 0 0.34 0 0 Z " fill="#E08797" transform="translate(136,71)"/>
<path d="M0 0 C0 0.66 0 1.32 0 2 C0.66 2 1.32 2 2 2 C1.67 3.32 1.34 4.64 1 6 C-0.98 5.01 -2.96 4.02 -5 3 C-2.25 0 -2.25 0 0 0 Z " fill="#D07682" transform="translate(111,128)"/>
<path d="M0 0 C0.99 0.33 1.98 0.66 3 1 C3.33 3.31 3.66 5.62 4 8 C3.01 8.33 2.02 8.66 1 9 C0 8 0 8 -0.09765625 6.15234375 C-0.06510417 4.1015625 -0.03255208 2.05078125 0 0 Z " fill="#0D0D0D" transform="translate(53,144)"/>
<path d="M0 0 C0.33 0 0.66 0 1 0 C1.36717663 7.4659249 1.36717663 7.4659249 -0.375 10 C-2 11 -2 11 -4 11 C-4 10.01 -4 9.02 -4 8 C-2.68 7.67 -1.36 7.34 0 7 C0 4.69 0 2.38 0 0 Z " fill="#A36775" transform="translate(149,100)"/>
<path d="M0 0 C0.33 0 0.66 0 1 0 C1 3.3 1 6.6 1 10 C0.01 10.33 -0.98 10.66 -2 11 C-2.33 10.34 -2.66 9.68 -3 9 C-2.34 8.01 -1.68 7.02 -1 6 C-0.60986284 4.0103005 -0.26797351 2.00980131 0 0 Z " fill="#B45F70" transform="translate(148,97)"/>
<path d="M0 0 C1.32 0.66 2.64 1.32 4 2 C3.67 2.66 3.34 3.32 3 4 C1.68 4 0.36 4 -1 4 C-1.66 4.66 -2.32 5.32 -3 6 C-3.33 5.34 -3.66 4.68 -4 4 C-2.68 2.68 -1.36 1.36 0 0 Z " fill="#E38392" transform="translate(125,69)"/>
<path d="M0 0 C0.99 0.33 1.98 0.66 3 1 C2.38125 1.5775 1.7625 2.155 1.125 2.75 C-0.81347053 4.80249821 -1.90014249 6.43366582 -3 9 C-3.36923077 3.46153846 -3.36923077 3.46153846 -1.5 1.125 C-1.005 0.75375 -0.51 0.3825 0 0 Z " fill="#010101" transform="translate(57,141)"/>
<path d="M0 0 C-2.31 1.65 -4.62 3.3 -7 5 C-7.66 4.67 -8.32 4.34 -9 4 C-6.35287314 0.09233654 -4.86783735 -1.62261245 0 0 Z " fill="#A76673" transform="translate(144,113)"/>
<path d="M0 0 C1.64350079 3.28700157 2.41321669 5.47930015 3 9 C2.01 9.33 1.02 9.66 0 10 C0 6.7 0 3.4 0 0 Z " fill="#824655" transform="translate(121,76)"/>
</svg>
