<svg width="386" height="131" version="1.1" xmlns="http://www.w3.org/2000/svg" desc="Created with imagetracer.js version 1.2.6" ><path fill="rgb(0,0,0)" stroke="rgb(0,0,0)" stroke-width="1" opacity="0" d="M 0 0 L 44 0.5 L 29.5 4 Q 17.8 9.8 10 19.5 L 3 31.5 L 0.5 42 L 0 0 Z " /><path fill="rgb(0,0,0)" stroke="rgb(0,0,0)" stroke-width="1" opacity="0" d="M 57.5 0 L 386 0 L 386 131 L 0.5 131 L 0 130.5 L 0 57.5 L 1 57.5 Q 4.5 79 19.5 89 L 37.5 98 L 42.5 99 L 58.5 99 Q 78.4 95.4 88 81.5 L 94 70.5 L 96 62.5 L 96 45 L 50.5 45 L 50 45.5 L 50 60 L 71.5 60 L 72.5 59 L 74.5 60 L 76.5 60 L 81 59 Q 80.9 71.4 72.5 77 L 59.5 84 L 48.5 85 Q 47 82.5 41.5 84 L 30.5 79 L 22 70.5 L 18 63.5 L 15 49.5 L 17 38.5 L 20 31.5 L 29.5 21 L 42.5 15 L 57.5 15 Q 68 17.5 74.5 24 L 84 13.5 L 70.5 4 L 61.5 1 L 57.5 1 L 57.5 0 Z M 305 4 L 305 97 L 306 97 L 320 97 L 320 5 L 320 4 L 305 4 Z M 127 35 Q 116 38 109 44 L 103 54 L 100 66 L 103 81 L 109 90 Q 116 96 127 99 L 143 98 L 154 92 L 163 80 L 165 71 L 165 64 L 163 55 L 158 47 Q 152 39 143 36 L 127 35 Z M 195 35 L 183 40 Q 172 47 169 61 L 169 74 L 174 86 Q 181 95 195 99 L 207 99 L 221 93 L 227 87 L 233 73 L 233 62 L 227 48 Q 218 34 195 35 Z M 263 35 L 250 41 L 241 51 L 238 57 L 236 66 Q 237 79 243 87 Q 250 96 263 99 L 273 99 L 282 95 L 284 94 Q 285 102 282 107 Q 279 112 272 114 Q 263 115 259 111 Q 254 108 253 103 L 250 103 L 240 107 Q 239 113 243 116 Q 249 124 261 127 L 276 127 L 287 122 Q 295 115 298 103 L 298 38 L 298 37 L 284 37 L 284 41 L 273 35 L 263 35 Z M 350 35 L 338 40 Q 328 46 325 59 L 325 75 Q 327 84 333 90 Q 339 97 351 99 L 363 99 L 376 93 L 383 85 L 372 77 L 369 81 L 362 85 Q 350 87 346 82 L 342 76 L 348 75 L 383 60 L 382 54 L 377 46 Q 372 39 364 36 L 350 35 Z " /><path fill="rgb(0,0,0)" stroke="rgb(0,0,0)" stroke-width="1" opacity="0" d="M 354.5 48 Q 362.9 48.1 366 53.5 Q 366.8 56.1 363.5 55 L 339 65 Q 339.8 55.5 346.5 51 L 354.5 48 Z " /><path fill="rgb(0,0,0)" stroke="rgb(0,0,0)" stroke-width="1" opacity="0" d="M 127.5 49 Q 141.5 47 146 54.5 L 150 63.5 L 150 70.5 L 149 74.5 L 143.5 82 Q 138.7 86.7 127.5 85 L 118 77.5 Q 114.4 72.1 116 61.5 Q 117.8 54.3 123.5 51 L 127.5 49 Z " /><path fill="rgb(0,0,0)" stroke="rgb(0,0,0)" stroke-width="1" opacity="0" d="M 195.5 49 L 206.5 49 L 214 54.5 L 218 63.5 L 218 70.5 Q 216.5 78 211.5 82 Q 207.1 87.1 195.5 85 L 187 78.5 Q 182.2 73.3 184 61.5 Q 186.3 54.8 191.5 51 L 195.5 49 Z " /><path fill="rgb(0,0,0)" stroke="rgb(0,0,0)" stroke-width="1" opacity="0" d="M 263.5 49 Q 278.2 46.8 282 55.5 L 285 63.5 L 285 70.5 Q 283.5 79 277.5 83 Q 273.2 86.7 263.5 85 L 255 78.5 Q 250.2 73.3 252 61.5 Q 254.3 54.8 259.5 51 L 263.5 49 Z " /><path fill="rgb(68,142,96)" stroke="rgb(68,142,96)" stroke-width="1" opacity="0.21176470588235294" d="M 305.5 4 L 306 96 L 318.5 96 L 319 95.5 L 319 4.5 L 320 4.5 L 320 96.5 L 319.5 97 L 305 97 L 305.5 4 Z " /><path fill="rgb(68,142,96)" stroke="rgb(68,142,96)" stroke-width="1" opacity="0.21176470588235294" d="M 82.5 12 L 84 14.5 L 83 14.5 L 82.5 12 Z " /><path fill="rgb(68,142,96)" stroke="rgb(68,142,96)" stroke-width="1" opacity="0.21176470588235294" d="M 47.5 14 L 54 14.5 L 47.5 15 L 47.5 14 Z " /><path fill="rgb(68,142,96)" stroke="rgb(68,142,96)" stroke-width="1" opacity="0.21176470588235294" d="M 126.5 35 L 132 35.5 L 126.5 36 L 126.5 35 Z " /><path fill="rgb(68,142,96)" stroke="rgb(68,142,96)" stroke-width="1" opacity="0.21176470588235294" d="M 133.5 35 L 139 35.5 L 133.5 36 L 133.5 35 Z " /><path fill="rgb(68,142,96)" stroke="rgb(68,142,96)" stroke-width="1" opacity="0.21176470588235294" d="M 194.5 35 L 200 35.5 L 194.5 36 L 194.5 35 Z " /><path fill="rgb(68,142,96)" stroke="rgb(68,142,96)" stroke-width="1" opacity="0.21176470588235294" d="M 201.5 35 L 207 35.5 L 201.5 36 L 201.5 35 Z " /><path fill="rgb(68,142,96)" stroke="rgb(68,142,96)" stroke-width="1" opacity="0.21176470588235294" d="M 349.5 35 L 354 35.5 L 349.5 36 L 349.5 35 Z " /><path fill="rgb(68,142,96)" stroke="rgb(68,142,96)" stroke-width="1" opacity="0.21176470588235294" d="M 356.5 35 L 360 35.5 L 356.5 36 L 356.5 35 Z " /><path fill="rgb(68,142,96)" stroke="rgb(68,142,96)" stroke-width="1" opacity="0.21176470588235294" d="M 340.5 38 L 342 38.5 L 339.5 40 L 340.5 38 Z " /><path fill="rgb(68,142,96)" stroke="rgb(68,142,96)" stroke-width="1" opacity="0.21176470588235294" d="M 368.5 38 L 369.5 40 L 368.5 38 Z " /><path fill="rgb(68,142,96)" stroke="rgb(68,142,96)" stroke-width="1" opacity="0.21176470588235294" d="M 114.5 40 L 113.5 42 L 114.5 40 Z " /><path fill="rgb(68,142,96)" stroke="rgb(68,142,96)" stroke-width="1" opacity="0.21176470588235294" d="M 337.5 40 L 334.5 44 L 337.5 40 Z " /><path fill="rgb(68,142,96)" stroke="rgb(68,142,96)" stroke-width="1" opacity="0.21176470588235294" d="M 181.5 41 L 180.5 43 L 181.5 41 Z " /><path fill="rgb(68,142,96)" stroke="rgb(68,142,96)" stroke-width="1" opacity="0.21176470588235294" d="M 220.5 41 L 226.5 48 L 220.5 41 Z " /><path fill="rgb(68,142,96)" stroke="rgb(68,142,96)" stroke-width="1" opacity="0.21176470588235294" d="M 372.5 41 L 376.5 46 L 372.5 41 Z " /><path fill="rgb(68,142,96)" stroke="rgb(68,142,96)" stroke-width="1" opacity="0.21176470588235294" d="M 153.5 42 L 157.5 47 L 153.5 42 Z " /><path fill="rgb(68,142,96)" stroke="rgb(68,142,96)" stroke-width="1" opacity="0.21176470588235294" d="M 332.5 45 L 330.5 48 L 332.5 45 Z " /><path fill="rgb(68,142,96)" stroke="rgb(68,142,96)" stroke-width="1" opacity="0.21176470588235294" d="M 107.5 47 L 106.5 49 L 107.5 47 Z " /><path fill="rgb(68,142,96)" stroke="rgb(68,142,96)" stroke-width="1" opacity="0.21176470588235294" d="M 175.5 47 L 174.5 49 L 175.5 47 Z " /><path fill="rgb(68,142,96)" stroke="rgb(68,142,96)" stroke-width="1" opacity="0.21176470588235294" d="M 129.5 48 L 137 48.5 L 129.5 49 L 129.5 48 Z " /><path fill="rgb(68,142,96)" stroke="rgb(68,142,96)" stroke-width="1" opacity="0.21176470588235294" d="M 197.5 48 L 205 48.5 L 197.5 49 L 197.5 48 Z " /><path fill="rgb(68,142,96)" stroke="rgb(68,142,96)" stroke-width="1" opacity="0.21176470588235294" d="M 269.5 48 L 272 48.5 L 269.5 49 L 269.5 48 Z " /><path fill="rgb(68,142,96)" stroke="rgb(68,142,96)" stroke-width="1" opacity="0.21176470588235294" d="M 351.5 48 L 354 48.5 L 351.5 49 L 351.5 48 Z " /><path fill="rgb(68,142,96)" stroke="rgb(68,142,96)" stroke-width="1" opacity="0.21176470588235294" d="M 357.5 48 L 360 48.5 L 357.5 49 L 357.5 48 Z " /><path fill="rgb(68,142,96)" stroke="rgb(68,142,96)" stroke-width="1" opacity="0.21176470588235294" d="M 141.5 50 L 142.5 52 L 141.5 50 Z " /><path fill="rgb(68,142,96)" stroke="rgb(68,142,96)" stroke-width="1" opacity="0.21176470588235294" d="M 209.5 50 L 210.5 52 L 209.5 50 Z " /><path fill="rgb(68,142,96)" stroke="rgb(68,142,96)" stroke-width="1" opacity="0.21176470588235294" d="M 363.5 50 L 365.5 53 L 363.5 50 Z " /><path fill="rgb(68,142,96)" stroke="rgb(68,142,96)" stroke-width="1" opacity="0.21176470588235294" d="M 122.5 51 L 118.5 56 L 122.5 51 Z " /><path fill="rgb(68,142,96)" stroke="rgb(68,142,96)" stroke-width="1" opacity="0.21176470588235294" d="M 345.5 51 L 342.5 55 L 345.5 51 Z " /><path fill="rgb(68,142,96)" stroke="rgb(68,142,96)" stroke-width="1" opacity="0.21176470588235294" d="M 189.5 52 L 187.5 55 L 189.5 52 Z " /><path fill="rgb(68,142,96)" stroke="rgb(68,142,96)" stroke-width="1" opacity="0.21176470588235294" d="M 214.5 55 L 215.5 57 L 214.5 55 Z " /><path fill="rgb(68,142,96)" stroke="rgb(68,142,96)" stroke-width="1" opacity="0.21176470588235294" d="M 186.5 56 L 185.5 58 L 186.5 56 Z " /><path fill="rgb(68,142,96)" stroke="rgb(68,142,96)" stroke-width="1" opacity="0.21176470588235294" d="M 147.5 57 L 148.5 59 L 147.5 57 Z " /><path fill="rgb(68,142,96)" stroke="rgb(68,142,96)" stroke-width="1" opacity="0.21176470588235294" d="M 325.5 58 L 326 60.5 L 325 60.5 L 325.5 58 Z " /><path fill="rgb(68,142,96)" stroke="rgb(68,142,96)" stroke-width="1" opacity="0.21176470588235294" d="M 63.5 59 L 70 59.5 L 63.5 60 L 63.5 59 Z " /><path fill="rgb(68,142,96)" stroke="rgb(68,142,96)" stroke-width="1" opacity="0.21176470588235294" d="M 101.5 59 L 102 61.5 L 101 61.5 L 101.5 59 Z " /><path fill="rgb(68,142,96)" stroke="rgb(68,142,96)" stroke-width="1" opacity="0.21176470588235294" d="M 169.5 60 L 170 62.5 L 169 62.5 L 169.5 60 Z " /><path fill="rgb(68,142,96)" stroke="rgb(68,142,96)" stroke-width="1" opacity="0.21176470588235294" d="M 232.5 61 L 233 72.5 L 232 72.5 L 232.5 61 Z " /><path fill="rgb(68,142,96)" stroke="rgb(68,142,96)" stroke-width="1" opacity="0.21176470588235294" d="M 115.5 63 L 116 70.5 L 115 70.5 L 115.5 63 Z " /><path fill="rgb(68,142,96)" stroke="rgb(68,142,96)" stroke-width="1" opacity="0.21176470588235294" d="M 164.5 63 L 165 70.5 L 164 70.5 L 164.5 63 Z " /><path fill="rgb(68,142,96)" stroke="rgb(68,142,96)" stroke-width="1" opacity="0.21176470588235294" d="M 183.5 63 L 184 70.5 L 183 70.5 L 183.5 63 Z " /><path fill="rgb(68,142,96)" stroke="rgb(68,142,96)" stroke-width="1" opacity="0.21176470588235294" d="M 100.5 65 L 101 68.5 L 100 68.5 L 100.5 65 Z " /><path fill="rgb(68,142,96)" stroke="rgb(68,142,96)" stroke-width="1" opacity="0.21176470588235294" d="M 77.5 71 L 76.5 73 L 77.5 71 Z " /><path fill="rgb(68,142,96)" stroke="rgb(68,142,96)" stroke-width="1" opacity="0.21176470588235294" d="M 169.5 71 L 170 73.5 L 169 73.5 L 169.5 71 Z " /><path fill="rgb(68,142,96)" stroke="rgb(68,142,96)" stroke-width="1" opacity="0.21176470588235294" d="M 101.5 72 L 102 74.5 L 101 74.5 L 101.5 72 Z " /><path fill="rgb(68,142,96)" stroke="rgb(68,142,96)" stroke-width="1" opacity="0.21176470588235294" d="M 325.5 72 L 326 74.5 L 325 74.5 L 325.5 72 Z " /><path fill="rgb(68,142,96)" stroke="rgb(68,142,96)" stroke-width="1" opacity="0.21176470588235294" d="M 215.5 77 L 214.5 79 L 215.5 77 Z " /><path fill="rgb(68,142,96)" stroke="rgb(68,142,96)" stroke-width="1" opacity="0.21176470588235294" d="M 371.5 77 L 373 77.5 L 369.5 80 L 371.5 77 Z " /><path fill="rgb(68,142,96)" stroke="rgb(68,142,96)" stroke-width="1" opacity="0.21176470588235294" d="M 162.5 78 L 163 79.5 L 161 80.5 L 162.5 78 Z " /><path fill="rgb(68,142,96)" stroke="rgb(68,142,96)" stroke-width="1" opacity="0.21176470588235294" d="M 342.5 78 L 343.5 80 L 342.5 78 Z " /><path fill="rgb(68,142,96)" stroke="rgb(68,142,96)" stroke-width="1" opacity="0.21176470588235294" d="M 119.5 79 L 122.5 83 L 119.5 79 Z " /><path fill="rgb(68,142,96)" stroke="rgb(68,142,96)" stroke-width="1" opacity="0.21176470588235294" d="M 187.5 79 L 189.5 82 L 187.5 79 Z " /><path fill="rgb(68,142,96)" stroke="rgb(68,142,96)" stroke-width="1" opacity="0.21176470588235294" d="M 210.5 82 L 209.5 84 L 210.5 82 Z " /><path fill="rgb(68,142,96)" stroke="rgb(68,142,96)" stroke-width="1" opacity="0.21176470588235294" d="M 346.5 82 L 347.5 84 L 346.5 82 Z " /><path fill="rgb(68,142,96)" stroke="rgb(68,142,96)" stroke-width="1" opacity="0.21176470588235294" d="M 380.5 82 L 383 85.5 L 379 88.5 L 382 84.5 L 380.5 82 Z " /><path fill="rgb(68,142,96)" stroke="rgb(68,142,96)" stroke-width="1" opacity="0.21176470588235294" d="M 106.5 85 L 107.5 87 L 106.5 85 Z " /><path fill="rgb(68,142,96)" stroke="rgb(68,142,96)" stroke-width="1" opacity="0.21176470588235294" d="M 129.5 85 L 137 85.5 L 129.5 86 L 129.5 85 Z " /><path fill="rgb(68,142,96)" stroke="rgb(68,142,96)" stroke-width="1" opacity="0.21176470588235294" d="M 174.5 85 L 175.5 87 L 174.5 85 Z " /><path fill="rgb(68,142,96)" stroke="rgb(68,142,96)" stroke-width="1" opacity="0.21176470588235294" d="M 197.5 85 L 205 85.5 L 197.5 86 L 197.5 85 Z " /><path fill="rgb(68,142,96)" stroke="rgb(68,142,96)" stroke-width="1" opacity="0.21176470588235294" d="M 265.5 85 L 268 85.5 L 265.5 86 L 265.5 85 Z " /><path fill="rgb(68,142,96)" stroke="rgb(68,142,96)" stroke-width="1" opacity="0.21176470588235294" d="M 352.5 85 L 361 85.5 L 352.5 86 L 352.5 85 Z " /><path fill="rgb(68,142,96)" stroke="rgb(68,142,96)" stroke-width="1" opacity="0.21176470588235294" d="M 226.5 86 L 220.5 93 L 226.5 86 Z " /><path fill="rgb(68,142,96)" stroke="rgb(68,142,96)" stroke-width="1" opacity="0.21176470588235294" d="M 157.5 87 L 153.5 92 L 157.5 87 Z " /><path fill="rgb(68,142,96)" stroke="rgb(68,142,96)" stroke-width="1" opacity="0.21176470588235294" d="M 333.5 89 L 334.5 91 L 333.5 89 Z " /><path fill="rgb(68,142,96)" stroke="rgb(68,142,96)" stroke-width="1" opacity="0.21176470588235294" d="M 377.5 90 L 375.5 93 L 377.5 90 Z " /><path fill="rgb(68,142,96)" stroke="rgb(68,142,96)" stroke-width="1" opacity="0.21176470588235294" d="M 76.5 91 L 75.5 93 L 76.5 91 Z " /><path fill="rgb(68,142,96)" stroke="rgb(68,142,96)" stroke-width="1" opacity="0.21176470588235294" d="M 180.5 91 L 181.5 93 L 180.5 91 Z " /><path fill="rgb(68,142,96)" stroke="rgb(68,142,96)" stroke-width="1" opacity="0.21176470588235294" d="M 113.5 92 L 114.5 94 L 113.5 92 Z " /><path fill="rgb(68,142,96)" stroke="rgb(68,142,96)" stroke-width="1" opacity="0.21176470588235294" d="M 218.5 93 L 217.5 95 L 218.5 93 Z " /><path fill="rgb(68,142,96)" stroke="rgb(68,142,96)" stroke-width="1" opacity="0.21176470588235294" d="M 340.5 94 L 341.5 96 L 340.5 94 Z " /><path fill="rgb(68,142,96)" stroke="rgb(68,142,96)" stroke-width="1" opacity="0.21176470588235294" d="M 42.5 98 L 45 98.5 L 42.5 99 L 42.5 98 Z " /><path fill="rgb(68,142,96)" stroke="rgb(68,142,96)" stroke-width="1" opacity="0.21176470588235294" d="M 56.5 98 L 59 98.5 L 56.5 99 L 56.5 98 Z " /><path fill="rgb(68,142,96)" stroke="rgb(68,142,96)" stroke-width="1" opacity="0.21176470588235294" d="M 126.5 98 L 131 98.5 L 126.5 99 L 126.5 98 Z " /><path fill="rgb(68,142,96)" stroke="rgb(68,142,96)" stroke-width="1" opacity="0.21176470588235294" d="M 134.5 98 L 139 98.5 L 134.5 99 L 134.5 98 Z " /><path fill="rgb(68,142,96)" stroke="rgb(68,142,96)" stroke-width="1" opacity="0.21176470588235294" d="M 194.5 98 L 200 98.5 L 194.5 99 L 194.5 98 Z " /><path fill="rgb(68,142,96)" stroke="rgb(68,142,96)" stroke-width="1" opacity="0.21176470588235294" d="M 202.5 98 L 207 98.5 L 202.5 99 L 202.5 98 Z " /><path fill="rgb(68,142,96)" stroke="rgb(68,142,96)" stroke-width="1" opacity="0.21176470588235294" d="M 262.5 98 L 265 98.5 L 262.5 99 L 262.5 98 Z " /><path fill="rgb(68,142,96)" stroke="rgb(68,142,96)" stroke-width="1" opacity="0.21176470588235294" d="M 350.5 98 L 355 98.5 L 350.5 99 L 350.5 98 Z " /><path fill="rgb(68,142,96)" stroke="rgb(68,142,96)" stroke-width="1" opacity="0.21176470588235294" d="M 356.5 98 L 363 98.5 L 356.5 99 L 356.5 98 Z " /><path fill="rgb(68,142,96)" stroke="rgb(68,142,96)" stroke-width="1" opacity="0.21176470588235294" d="M 260.5 126 L 263 126.5 L 260.5 127 L 260.5 126 Z " /><path fill="rgb(56,169,91)" stroke="rgb(56,169,91)" stroke-width="1" opacity="0.9137254901960784" d="M 306.5 4 L 319 4.5 L 306.5 5 L 306.5 4 Z " /><path fill="rgb(77,128,212)" stroke="rgb(77,128,212)" stroke-width="1" opacity="0.6" d="M 44.5 0 L 57 0.5 L 40.5 2 L 40.5 1 L 44.5 0 Z " /><path fill="rgb(77,128,212)" stroke="rgb(77,128,212)" stroke-width="1" opacity="0.6" d="M 36.5 2 L 39 2.5 L 36.5 3 L 36.5 2 Z " /><path fill="rgb(77,128,212)" stroke="rgb(77,128,212)" stroke-width="1" opacity="0.6" d="M 62.5 2 L 65 2.5 L 62.5 3 L 62.5 2 Z " /><path fill="rgb(77,128,212)" stroke="rgb(77,128,212)" stroke-width="1" opacity="0.6" d="M 32.5 3 L 35 3.5 L 28.5 6 L 28.5 5 L 32.5 3 Z " /><path fill="rgb(77,128,212)" stroke="rgb(77,128,212)" stroke-width="1" opacity="0.6" d="M 66.5 3 L 72 5.5 L 70.5 6 L 66.5 4 L 66.5 3 Z " /><path fill="rgb(77,128,212)" stroke="rgb(77,128,212)" stroke-width="1" opacity="0.6" d="M 26.5 6 L 25.5 8 L 26.5 6 Z " /><path fill="rgb(77,128,212)" stroke="rgb(77,128,212)" stroke-width="1" opacity="0.6" d="M 73.5 6 L 78 9.5 L 75.5 8 L 73.5 6 Z " /><path fill="rgb(77,128,212)" stroke="rgb(77,128,212)" stroke-width="1" opacity="0.6" d="M 21.5 9 L 18.5 13 L 15.5 15 L 17.5 12 L 21.5 9 Z " /><path fill="rgb(77,128,212)" stroke="rgb(77,128,212)" stroke-width="1" opacity="0.6" d="M 79.5 10 L 82.5 14 L 79.5 10 Z " /><path fill="rgb(77,128,212)" stroke="rgb(77,128,212)" stroke-width="1" opacity="0.6" d="M 43.5 14 L 47 14.5 L 43.5 15 L 43.5 14 Z " /><path fill="rgb(77,128,212)" stroke="rgb(77,128,212)" stroke-width="1" opacity="0.6" d="M 54.5 14 L 62 15.5 L 58.5 16 L 54.5 15 L 54.5 14 Z " /><path fill="rgb(77,128,212)" stroke="rgb(77,128,212)" stroke-width="1" opacity="0.6" d="M 39.5 15 L 42 15.5 L 39.5 16 L 39.5 15 Z " /><path fill="rgb(77,128,212)" stroke="rgb(77,128,212)" stroke-width="1" opacity="0.6" d="M 82.5 15 L 75.5 23 L 82.5 15 Z " /><path fill="rgb(77,128,212)" stroke="rgb(77,128,212)" stroke-width="1" opacity="0.6" d="M 13.5 16 L 12 18.5 L 9.5 22 L 11 19.5 L 13.5 16 Z " /><path fill="rgb(77,128,212)" stroke="rgb(77,128,212)" stroke-width="1" opacity="0.6" d="M 36.5 16 L 38 16.5 L 34.5 18 L 34.5 17 L 36.5 16 Z " /><path fill="rgb(77,128,212)" stroke="rgb(77,128,212)" stroke-width="1" opacity="0.6" d="M 32.5 18 L 30.5 21 L 22 28.5 L 19.5 32 L 21 29.5 L 29.5 20 L 32.5 18 Z " /><path fill="rgb(77,128,212)" stroke="rgb(77,128,212)" stroke-width="1" opacity="0.6" d="M 67.5 18 L 73 22.5 L 69.5 20 L 67.5 18 Z " /><path fill="rgb(77,128,212)" stroke="rgb(77,128,212)" stroke-width="1" opacity="0.6" d="M 8.5 23 L 8 24.5 L 6.5 27 L 7 25.5 L 8.5 23 Z " /><path fill="rgb(77,128,212)" stroke="rgb(77,128,212)" stroke-width="1" opacity="0.6" d="M 4.5 30 L 5 31.5 L 3.5 34 L 3 32.5 L 4.5 30 Z " /><path fill="rgb(77,128,212)" stroke="rgb(77,128,212)" stroke-width="1" opacity="0.6" d="M 18.5 33 L 19 34.5 L 16.5 40 L 16 38.5 L 18.5 33 Z " /><path fill="rgb(77,128,212)" stroke="rgb(77,128,212)" stroke-width="1" opacity="0.6" d="M 2.5 35 L 3 37.5 L 2 37.5 L 2.5 35 Z " /><path fill="rgb(77,128,212)" stroke="rgb(77,128,212)" stroke-width="1" opacity="0.6" d="M 263.5 35 L 271 35.5 L 263.5 36 L 263.5 35 Z " /><path fill="rgb(77,128,212)" stroke="rgb(77,128,212)" stroke-width="1" opacity="0.6" d="M 259.5 36 L 262 36.5 L 259.5 37 L 259.5 36 Z " /><path fill="rgb(77,128,212)" stroke="rgb(77,128,212)" stroke-width="1" opacity="0.6" d="M 273.5 36 L 283.5 41 L 285.5 37 L 297.5 37 L 298 37.5 L 298 102.5 L 296.5 106 L 296 103.5 L 297 102.5 L 297 38 L 285 38 L 285 42.5 L 282.5 41 L 273.5 37 L 273.5 36 Z " /><path fill="rgb(77,128,212)" stroke="rgb(77,128,212)" stroke-width="1" opacity="0.6" d="M 256.5 37 L 258 37.5 L 253.5 40 L 254.5 38 L 256.5 37 Z " /><path fill="rgb(77,128,212)" stroke="rgb(77,128,212)" stroke-width="1" opacity="0.6" d="M 1.5 39 L 2 41.5 L 1 42.5 L 1 56.5 L 2 59.5 L 1 59.5 Q -1.8 53.2 0 42.5 L 1.5 39 Z " /><path fill="rgb(77,128,212)" stroke="rgb(77,128,212)" stroke-width="1" opacity="0.6" d="M 251.5 40 L 250.5 42 L 251.5 40 Z " /><path fill="rgb(77,128,212)" stroke="rgb(77,128,212)" stroke-width="1" opacity="0.6" d="M 15.5 42 L 16 48.5 L 15 48.5 L 15.5 42 Z " /><path fill="rgb(77,128,212)" stroke="rgb(77,128,212)" stroke-width="1" opacity="0.6" d="M 248.5 42 L 246.5 45 L 248.5 42 Z " /><path fill="rgb(77,128,212)" stroke="rgb(77,128,212)" stroke-width="1" opacity="0.6" d="M 50.5 45 L 95 45.5 L 50.5 46 L 50.5 45 Z " /><path fill="rgb(77,128,212)" stroke="rgb(77,128,212)" stroke-width="1" opacity="0.6" d="M 95.5 47 L 96 60.5 L 95 60.5 L 95.5 47 Z " /><path fill="rgb(77,128,212)" stroke="rgb(77,128,212)" stroke-width="1" opacity="0.6" d="M 243.5 48 L 242.5 50 L 243.5 48 Z " /><path fill="rgb(77,128,212)" stroke="rgb(77,128,212)" stroke-width="1" opacity="0.6" d="M 263.5 48 L 267 48.5 L 263.5 49 L 263.5 48 Z " /><path fill="rgb(77,128,212)" stroke="rgb(77,128,212)" stroke-width="1" opacity="0.6" d="M 272.5 48 L 276 49.5 L 274.5 50 L 272.5 48 Z " /><path fill="rgb(77,128,212)" stroke="rgb(77,128,212)" stroke-width="1" opacity="0.6" d="M 15.5 50 L 16 56.5 L 15 56.5 L 15.5 50 Z " /><path fill="rgb(77,128,212)" stroke="rgb(77,128,212)" stroke-width="1" opacity="0.6" d="M 259.5 50 L 254.5 56 L 259.5 50 Z " /><path fill="rgb(77,128,212)" stroke="rgb(77,128,212)" stroke-width="1" opacity="0.6" d="M 277.5 50 L 278.5 52 L 277.5 50 Z " /><path fill="rgb(77,128,212)" stroke="rgb(77,128,212)" stroke-width="1" opacity="0.6" d="M 280.5 53 L 284 57.5 L 282 56.5 L 280.5 53 Z " /><path fill="rgb(77,128,212)" stroke="rgb(77,128,212)" stroke-width="1" opacity="0.6" d="M 253.5 57 L 254 58.5 L 252.5 61 L 252 59.5 L 253.5 57 Z " /><path fill="rgb(77,128,212)" stroke="rgb(77,128,212)" stroke-width="1" opacity="0.6" d="M 50.5 58 L 61.5 59 L 64.5 58 L 64.5 59 L 59.5 60 L 57.5 60 Q 51 61 50.5 58 Z " /><path fill="rgb(77,128,212)" stroke="rgb(77,128,212)" stroke-width="1" opacity="0.6" d="M 78.5 58 Q 84.6 56.2 82 63.5 L 80.5 67 L 80 64.5 L 81 59 Q 77.7 59.8 78.5 58 Z " /><path fill="rgb(77,128,212)" stroke="rgb(77,128,212)" stroke-width="1" opacity="0.6" d="M 284.5 59 L 285 61.5 L 284 61.5 L 284.5 59 Z " /><path fill="rgb(77,128,212)" stroke="rgb(77,128,212)" stroke-width="1" opacity="0.6" d="M 2.5 62 L 4 66.5 L 3 66.5 L 2.5 62 Z " /><path fill="rgb(77,128,212)" stroke="rgb(77,128,212)" stroke-width="1" opacity="0.6" d="M 237.5 62 L 238 71.5 L 237 71.5 L 236 68.5 L 237 65.5 L 237.5 62 Z " /><path fill="rgb(77,128,212)" stroke="rgb(77,128,212)" stroke-width="1" opacity="0.6" d="M 251.5 62 L 252 72.5 L 251 72.5 L 251.5 62 Z " /><path fill="rgb(77,128,212)" stroke="rgb(77,128,212)" stroke-width="1" opacity="0.6" d="M 94.5 63 L 95 65.5 L 94 65.5 L 94.5 63 Z " /><path fill="rgb(77,128,212)" stroke="rgb(77,128,212)" stroke-width="1" opacity="0.6" d="M 285.5 63 L 286 70.5 L 285 70.5 L 285.5 63 Z " /><path fill="rgb(77,128,212)" stroke="rgb(77,128,212)" stroke-width="1" opacity="0.6" d="M 18.5 65 L 24 72.5 L 21 70.5 L 18.5 65 Z " /><path fill="rgb(77,128,212)" stroke="rgb(77,128,212)" stroke-width="1" opacity="0.6" d="M 4.5 68 L 7 72.5 L 5 71.5 L 4.5 68 Z " /><path fill="rgb(77,128,212)" stroke="rgb(77,128,212)" stroke-width="1" opacity="0.6" d="M 79.5 68 L 79 69.5 L 78.5 71 L 78 69.5 L 79.5 68 Z " /><path fill="rgb(77,128,212)" stroke="rgb(77,128,212)" stroke-width="1" opacity="0.6" d="M 77.5 72 L 71.5 79 L 68.5 81 L 70.5 78 L 77.5 72 Z " /><path fill="rgb(77,128,212)" stroke="rgb(77,128,212)" stroke-width="1" opacity="0.6" d="M 284.5 72 L 285 74.5 L 280.5 81 L 282 78.5 L 284.5 72 Z " /><path fill="rgb(77,128,212)" stroke="rgb(77,128,212)" stroke-width="1" opacity="0.6" d="M 7.5 74 L 11 79.5 L 10 79.5 L 7 75.5 L 7.5 74 Z " /><path fill="rgb(77,128,212)" stroke="rgb(77,128,212)" stroke-width="1" opacity="0.6" d="M 24.5 74 L 35 81.5 L 33.5 81 Q 26.5 79.3 24.5 74 Z " /><path fill="rgb(77,128,212)" stroke="rgb(77,128,212)" stroke-width="1" opacity="0.6" d="M 252.5 74 L 254 76.5 L 252 75.5 L 252.5 74 Z " /><path fill="rgb(77,128,212)" stroke="rgb(77,128,212)" stroke-width="1" opacity="0.6" d="M 90.5 76 L 89.5 78 L 90.5 76 Z " /><path fill="rgb(77,128,212)" stroke="rgb(77,128,212)" stroke-width="1" opacity="0.6" d="M 254.5 78 L 255.5 80 L 254.5 78 Z " /><path fill="rgb(77,128,212)" stroke="rgb(77,128,212)" stroke-width="1" opacity="0.6" d="M 88.5 79 L 88 80.5 L 87.5 82 L 87 80.5 L 88.5 79 Z " /><path fill="rgb(77,128,212)" stroke="rgb(77,128,212)" stroke-width="1" opacity="0.6" d="M 12.5 81 L 22 89.5 L 19.5 88 L 12.5 81 Z " /><path fill="rgb(77,128,212)" stroke="rgb(77,128,212)" stroke-width="1" opacity="0.6" d="M 257.5 81 L 259.5 84 L 257.5 81 Z " /><path fill="rgb(77,128,212)" stroke="rgb(77,128,212)" stroke-width="1" opacity="0.6" d="M 36.5 82 L 40 83.5 L 38.5 84 L 36.5 82 Z " /><path fill="rgb(77,128,212)" stroke="rgb(77,128,212)" stroke-width="1" opacity="0.6" d="M 63.5 82 L 65 82.5 L 60.5 84 L 60.5 83 L 63.5 82 Z " /><path fill="rgb(77,128,212)" stroke="rgb(77,128,212)" stroke-width="1" opacity="0.6" d="M 278.5 82 L 276.5 85 L 275 84.5 L 278.5 82 Z " /><path fill="rgb(77,128,212)" stroke="rgb(77,128,212)" stroke-width="1" opacity="0.6" d="M 85.5 83 L 81.5 88 L 85.5 83 Z " /><path fill="rgb(77,128,212)" stroke="rgb(77,128,212)" stroke-width="1" opacity="0.6" d="M 42.5 84 L 48 84.5 L 42.5 85 L 42.5 84 Z " /><path fill="rgb(77,128,212)" stroke="rgb(77,128,212)" stroke-width="1" opacity="0.6" d="M 53.5 84 L 59 84.5 L 53.5 85 L 53.5 84 Z " /><path fill="rgb(77,128,212)" stroke="rgb(77,128,212)" stroke-width="1" opacity="0.6" d="M 242.5 84 L 243.5 86 L 242.5 84 Z " /><path fill="rgb(77,128,212)" stroke="rgb(77,128,212)" stroke-width="1" opacity="0.6" d="M 261.5 84 L 265 85.5 L 263.5 86 L 261.5 84 Z " /><path fill="rgb(77,128,212)" stroke="rgb(77,128,212)" stroke-width="1" opacity="0.6" d="M 244.5 87 L 248.5 92 L 244.5 87 Z " /><path fill="rgb(77,128,212)" stroke="rgb(77,128,212)" stroke-width="1" opacity="0.6" d="M 78.5 89 L 80 89.5 L 77.5 91 L 78.5 89 Z " /><path fill="rgb(77,128,212)" stroke="rgb(77,128,212)" stroke-width="1" opacity="0.6" d="M 23.5 90 L 29 93.5 L 27.5 94 L 23.5 90 Z " /><path fill="rgb(77,128,212)" stroke="rgb(77,128,212)" stroke-width="1" opacity="0.6" d="M 75.5 91 L 74.5 93 L 75.5 91 Z " /><path fill="rgb(77,128,212)" stroke="rgb(77,128,212)" stroke-width="1" opacity="0.6" d="M 284.5 91 L 285 99.5 L 284 99.5 L 283.5 93 L 273.5 98 L 273.5 97 Q 280.7 95.7 284.5 91 Z " /><path fill="rgb(77,128,212)" stroke="rgb(77,128,212)" stroke-width="1" opacity="0.6" d="M 250.5 92 L 251.5 94 L 250.5 92 Z " /><path fill="rgb(77,128,212)" stroke="rgb(77,128,212)" stroke-width="1" opacity="0.6" d="M 69.5 94 L 71 94.5 L 67.5 96 L 67.5 95 L 69.5 94 Z " /><path fill="rgb(77,128,212)" stroke="rgb(77,128,212)" stroke-width="1" opacity="0.6" d="M 253.5 94 L 258 96.5 L 256.5 97 L 253.5 94 Z " /><path fill="rgb(77,128,212)" stroke="rgb(77,128,212)" stroke-width="1" opacity="0.6" d="M 36.5 96 L 42 97.5 L 38.5 98 L 36.5 96 Z " /><path fill="rgb(77,128,212)" stroke="rgb(77,128,212)" stroke-width="1" opacity="0.6" d="M 63.5 96 L 66 96.5 L 59.5 98 L 59.5 97 L 63.5 96 Z " /><path fill="rgb(77,128,212)" stroke="rgb(77,128,212)" stroke-width="1" opacity="0.6" d="M 45.5 98 L 56 98.5 L 45.5 99 L 45.5 98 Z " /><path fill="rgb(77,128,212)" stroke="rgb(77,128,212)" stroke-width="1" opacity="0.6" d="M 265.5 98 L 271 98.5 L 265.5 99 L 265.5 98 Z " /><path fill="rgb(77,128,212)" stroke="rgb(77,128,212)" stroke-width="1" opacity="0.6" d="M 283.5 101 L 284 104.5 L 279.5 111 L 278 110.5 Q 282.9 107.9 283.5 101 Z " /><path fill="rgb(77,128,212)" stroke="rgb(77,128,212)" stroke-width="1" opacity="0.6" d="M 250.5 103 L 253 104.5 L 251.5 104 L 248.5 105 L 248.5 104 L 250.5 103 Z " /><path fill="rgb(77,128,212)" stroke="rgb(77,128,212)" stroke-width="1" opacity="0.6" d="M 245.5 105 L 247 105.5 L 241.5 108 L 242.5 106 L 245.5 105 Z " /><path fill="rgb(77,128,212)" stroke="rgb(77,128,212)" stroke-width="1" opacity="0.6" d="M 253.5 106 L 255.5 109 L 253.5 106 Z " /><path fill="rgb(77,128,212)" stroke="rgb(77,128,212)" stroke-width="1" opacity="0.6" d="M 240.5 109 L 247.5 119 L 251 121.5 L 248.5 120 L 244 116.5 L 240 110.5 L 240.5 109 Z " /><path fill="rgb(77,128,212)" stroke="rgb(77,128,212)" stroke-width="1" opacity="0.6" d="M 257.5 110 L 261 112.5 L 259.5 113 L 257.5 110 Z " /><path fill="rgb(77,128,212)" stroke="rgb(77,128,212)" stroke-width="1" opacity="0.6" d="M 293.5 112 L 294 113.5 L 291 115.5 L 293.5 112 Z " /><path fill="rgb(77,128,212)" stroke="rgb(77,128,212)" stroke-width="1" opacity="0.6" d="M 262.5 113 L 270 114.5 L 265.5 115 L 262.5 114 L 262.5 113 Z " /><path fill="rgb(77,128,212)" stroke="rgb(77,128,212)" stroke-width="1" opacity="0.6" d="M 272.5 113 L 275 113.5 L 272.5 114 L 272.5 113 Z " /><path fill="rgb(77,128,212)" stroke="rgb(77,128,212)" stroke-width="1" opacity="0.6" d="M 290.5 117 L 286.5 122 L 284.5 123 L 285.5 121 L 290.5 117 Z " /><path fill="rgb(77,128,212)" stroke="rgb(77,128,212)" stroke-width="1" opacity="0.6" d="M 281.5 123 L 283 123.5 L 276.5 126 L 276.5 125 L 281.5 123 Z " /><path fill="rgb(77,128,212)" stroke="rgb(77,128,212)" stroke-width="1" opacity="0.6" d="M 256.5 124 L 261 125.5 L 257.5 126 L 256.5 124 Z " /><path fill="rgb(77,128,212)" stroke="rgb(77,128,212)" stroke-width="1" opacity="0.6" d="M 263.5 126 L 275 126.5 L 263.5 127 L 263.5 126 Z " /><path fill="rgb(51,166,82)" stroke="rgb(51,166,82)" stroke-width="1" opacity="1" d="M 306 5 L 318.5 5 L 319 5.5 L 319 96 L 306.5 96 L 306 95.5 L 306 5 Z " /><path fill="rgb(65,133,243)" stroke="rgb(65,133,243)" stroke-width="1" opacity="0.996078431372549" d="M 44.5 1 L 57.5 1 L 65.5 3 Q 76.4 6.6 83 14.5 L 73.5 23 Q 65.3 11.7 43.5 14 Q 28.4 17.4 21 28.5 L 15 42.5 L 15 56.5 L 17 63.5 L 24 75 L 38.5 84 Q 46.4 86.6 58.5 85 Q 71.2 81.7 78 72.5 L 82 63.5 L 82 58 L 75.5 59 L 73.5 59 L 62.5 58 L 59.5 59 L 58.5 58 L 50 58 L 50 46.5 L 50.5 46 L 95 46 L 95 62.5 L 93 70.5 Q 88.6 82.1 79.5 89 Q 71.2 95.7 58.5 98 L 42.5 98 Q 21.8 93.8 11 79.5 L 2 61.5 L 1 42.5 Q 4.8 23.3 17.5 13 L 27.5 6 L 44.5 1 Z " /><path fill="rgb(65,133,243)" stroke="rgb(65,133,243)" stroke-width="1" opacity="0.996078431372549" d="M 262.5 36 L 272.5 36 L 284.5 43 L 285 38 L 296.5 38 L 297 38.5 L 297 102.5 Q 294.6 114.6 286.5 121 L 275.5 126 L 261.5 126 Q 251 123.5 245 116.5 L 240 108.5 L 251.5 104 L 259.5 113 L 269.5 115 L 274.5 114 L 281 109.5 L 284 104.5 L 285 91.5 L 282.5 93 Q 276.3 99.8 261.5 98 Q 250.4 94.6 244 86.5 L 238 73.5 L 238 60.5 Q 241 48.5 249.5 42 L 262.5 36 Z M 264 48 L 260 50 Q 253 54 251 63 Q 249 74 254 79 L 264 86 Q 272 87 277 85 Q 284 80 286 71 L 286 64 L 283 56 L 274 48 L 264 48 Z " /><path fill="rgb(234,107,41)" stroke="rgb(234,107,41)" stroke-width="1" opacity="0.9176470588235294" d="M 132.5 35 Q 134.3 37.7 140.5 36 L 148.5 39 L 159 48.5 L 164 59.5 L 164 74.5 Q 160.7 86.7 151.5 93 L 140.5 98 L 131.5 99 L 121.5 97 Q 113.1 93.9 108 87.5 Q 99.9 79.6 101 62.5 Q 103.3 48.8 112.5 42 L 121.5 37 L 132.5 35 Z M 130 48 L 123 51 Q 116 55 115 64 Q 114 74 119 80 Q 123 84 130 86 Q 139 87 143 83 Q 148 79 150 73 Q 152 61 147 56 Q 143 47 130 48 Z " /><path fill="rgb(234,107,41)" stroke="rgb(234,107,41)" stroke-width="1" opacity="0.9176470588235294" d="M 200.5 35 L 201.5 36 L 209.5 36 L 212.5 38 Q 214 35.5 215.5 39 L 218.5 40 L 227 48.5 L 232 59.5 L 232 74.5 Q 228.7 86.7 219.5 93 L 209.5 98 L 200.5 99 L 189.5 97 Q 181.2 93.8 176 87.5 L 170 76.5 L 169 63.5 L 172 52.5 L 179.5 43 L 182 41.5 Q 181.2 38.9 184.5 40 L 192.5 36 Q 198.8 37.7 200.5 35 Z M 198 48 L 190 52 Q 184 56 183 64 L 183 71 L 187 80 L 198 86 Q 206 87 210 84 Q 216 80 218 73 Q 220 62 216 57 Q 212 47 198 48 Z " /><path fill="rgb(234,107,41)" stroke="rgb(234,107,41)" stroke-width="1" opacity="0.9176470588235294" d="M 354.5 35 L 367.5 38 L 378 47.5 L 383 58.5 L 377.5 62 L 342 76 L 342 78.5 L 347.5 84 Q 351.9 87.1 360.5 86 Q 367.6 83.6 371.5 78 L 373.5 78 L 382 84.5 L 379 90 L 367.5 97 L 356.5 98 L 355.5 99 L 342.5 96 L 331 86.5 Q 323.8 78.2 325 61.5 Q 327.3 50.7 333 44 L 344.5 37 L 354.5 35 Z M 352 48 L 346 51 Q 339 56 339 65 L 345 64 L 365 55 Q 367 56 366 53 Q 363 46 352 48 Z " /></svg>