<?xml version="1.0" encoding="UTF-8"?>
<svg version="1.1" xmlns="http://www.w3.org/2000/svg" width="225" height="225">
<path d="M0 0 C0.83265381 0.00523682 1.66530762 0.01047363 2.52319336 0.01586914 C3.42231445 0.0190918 4.32143555 0.02231445 5.24780273 0.02563477 C6.66609375 0.03820313 6.66609375 0.03820313 8.11303711 0.05102539 C9.06243164 0.05553711 10.01182617 0.06004883 10.98999023 0.06469727 C13.34356776 0.07652429 15.69702188 0.09300514 18.05053711 0.11352539 C19.48462937 2.98170992 19.17783312 5.43723142 19.17993164 8.64282227 C19.18168396 9.3128981 19.18343628 9.98297394 19.1852417 10.6733551 C19.18965061 12.89302138 19.1867256 15.11260827 19.18334961 17.33227539 C19.18402292 18.87162288 19.18499318 20.41097026 19.18624878 21.95031738 C19.18772445 25.1783957 19.18557538 28.40644637 19.1809082 31.63452148 C19.17521099 35.77751618 19.17849069 39.9204461 19.18448067 44.06343842 C19.1880898 47.24266042 19.18694607 50.42186701 19.18435287 53.60108948 C19.18368458 55.1289521 19.18450863 56.65681612 19.18683243 58.18467712 C19.18936471 60.31789879 19.18551022 62.45101475 19.17993164 64.58422852 C19.17913605 65.79953247 19.17834045 67.01483643 19.17752075 68.26696777 C19.05053711 71.11352539 19.05053711 71.11352539 18.05053711 73.11352539 C14.73805524 73.14240686 11.42560544 73.16028338 8.11303711 73.17602539 C7.16750977 73.1844043 6.22198242 73.1927832 5.24780273 73.20141602 C3.89912109 73.20625 3.89912109 73.20625 2.52319336 73.21118164 C1.69053955 73.21641846 0.85788574 73.22165527 0 73.22705078 C-1.94946289 73.11352539 -1.94946289 73.11352539 -2.94946289 72.11352539 C-3.16934468 67.96533535 -3.13525034 63.81368384 -3.13476562 59.66015625 C-3.13692869 57.58384986 -3.15501084 55.50809535 -3.17407227 53.43188477 C-3.21553796 43.8815066 -3.13377327 35.88808701 3.05053711 28.11352539 C7.11940802 24.15462397 9.11606823 23.80908793 15.05053711 22.11352539 C9.44053711 21.78352539 3.83053711 21.45352539 -1.94946289 21.11352539 C-2.14324856 17.80128115 -2.32978795 14.48891051 -2.51196289 11.17602539 C-2.56803711 10.23049805 -2.62411133 9.2849707 -2.68188477 8.31079102 C-2.73022461 7.41166992 -2.77856445 6.51254883 -2.82836914 5.58618164 C-2.87550049 4.75352783 -2.92263184 3.92087402 -2.97119141 3.06298828 C-2.94151355 0.40031744 -2.64887347 0.154255 0 0 Z " fill="#FCFDFB" transform="translate(154.949462890625,59.886474609375)"/>
<path d="M0 0 C6.6 0 13.2 0 20 0 C20.7996208 3.19848321 21.12614663 5.35058692 21.12939453 8.55322266 C21.13254669 9.44739899 21.13569885 10.34157532 21.13894653 11.2628479 C21.1369223 12.22024872 21.13489807 13.17764954 21.1328125 14.1640625 C21.13424759 15.64669083 21.13424759 15.64669083 21.13571167 17.15927124 C21.13639145 19.24550439 21.13455127 21.33173968 21.13037109 23.41796875 C21.12500864 26.61983962 21.13032878 29.82157093 21.13671875 33.0234375 C21.13605816 35.04947948 21.13477738 37.07552137 21.1328125 39.1015625 C21.13483673 40.06301178 21.13686096 41.02446106 21.13894653 42.01504517 C21.13579437 42.90291718 21.13264221 43.79078918 21.12939453 44.70556641 C21.12859894 45.48848053 21.12780334 46.27139465 21.12698364 47.07803345 C21 49 21 49 20 51 C13.4 50.67 6.8 50.34 0 50 C-0.97342373 47.07972881 -1.09473842 45.37082553 -1.02172852 42.3449707 C-1.00163223 41.40422195 -0.98153595 40.46347321 -0.96083069 39.49421692 C-0.93379562 38.48163315 -0.90676056 37.46904938 -0.87890625 36.42578125 C-0.85529526 35.38681198 -0.83168427 34.34784271 -0.80735779 33.27738953 C-0.73072211 29.95562067 -0.64669703 26.63408498 -0.5625 23.3125 C-0.50927924 21.06186041 -0.45653884 18.8112094 -0.40429688 16.56054688 C-0.27510699 11.04021664 -0.13928919 5.52008427 0 0 Z " fill="#FCFEFC" transform="translate(103,82)"/>
<path d="M0 0 C1.27423828 -0.00193359 1.27423828 -0.00193359 2.57421875 -0.00390625 C3.91419922 0.00189453 3.91419922 0.00189453 5.28125 0.0078125 C6.17457031 0.00394531 7.06789063 0.00007813 7.98828125 -0.00390625 C8.83777344 -0.00261719 9.68726562 -0.00132813 10.5625 0 C11.34689453 0.00112793 12.13128906 0.00225586 12.93945312 0.00341797 C14.78125 0.1328125 14.78125 0.1328125 15.78125 1.1328125 C15.87444449 2.6676422 15.898708 4.20673332 15.89477539 5.74438477 C15.89469986 6.72532608 15.89462433 7.7062674 15.89454651 8.7169342 C15.88938522 9.7835881 15.88422394 10.850242 15.87890625 11.94921875 C15.8774913 13.03541 15.87607635 14.12160126 15.87461853 15.2407074 C15.86900048 18.72560325 15.85644492 22.21043592 15.84375 25.6953125 C15.83873733 28.05143137 15.83417402 30.40755124 15.83007812 32.76367188 C15.81902519 38.55340714 15.80226951 44.34310531 15.78125 50.1328125 C13.484713 51.281081 12.19811833 51.24842425 9.6484375 51.23046875 C8.84277344 51.22724609 8.03710938 51.22402344 7.20703125 51.22070312 C5.94439453 51.20813477 5.94439453 51.20813477 4.65625 51.1953125 C3.80675781 51.19080078 2.95726562 51.18628906 2.08203125 51.18164062 C-0.01825909 51.16984124 -2.1185133 51.15190556 -4.21875 51.1328125 C-5.07013229 48.1754752 -5.34510816 45.54528828 -5.34814453 42.47192383 C-5.35129669 41.55449905 -5.35444885 40.63707428 -5.35769653 39.69184875 C-5.3556723 38.7094371 -5.35364807 37.72702545 -5.3515625 36.71484375 C-5.35251923 35.70185715 -5.35347595 34.68887054 -5.35446167 33.64518738 C-5.35514145 31.50767962 -5.35330124 29.37016979 -5.34912109 27.23266602 C-5.34375338 23.94738177 -5.34908146 20.66223321 -5.35546875 17.37695312 C-5.35480826 15.30208303 -5.3535277 13.22721302 -5.3515625 11.15234375 C-5.35459885 9.66961723 -5.35459885 9.66961723 -5.35769653 8.15693665 C-5.35454437 7.24896835 -5.35139221 6.34100006 -5.34814453 5.40551758 C-5.34734894 4.60261795 -5.34655334 3.79971832 -5.34573364 2.9724884 C-5.09934169 -0.59711573 -3.08553742 0.00443689 0 0 Z " fill="#FDFEFD" transform="translate(58.21875,81.8671875)"/>
<path d="M0 0 C3.36092703 1.71217037 5.40208915 3.06413955 7.4375 6.25 C8.21357066 10.04412325 8.18359667 13.29189651 7 17 C3.80373784 20.85190568 1.75114847 22.83162034 -3.25 23.3125 C-7.68062166 22.94328153 -9.61779734 21.83161153 -13 19 C-15.52379448 14.86305854 -15.99403604 10.72588323 -15 6 C-11.00325131 0.78951474 -6.30991312 -0.52582609 0 0 Z " fill="#F9FCFA" transform="translate(140,81)"/>
<path d="M0 0 C0 6.6 0 13.2 0 20 C-6.6 20 -13.2 20 -20 20 C-19.04450432 11.40053887 -18.67990964 8.65336801 -13 3 C-8.11956753 -0.32284764 -6.3489667 0 0 0 Z " fill="#FAFCFA" transform="translate(96,83)"/>
<path d="M0 0 C2.53541298 0.09086451 5.03554784 0.2370945 7.5625 0.4375 C8.62887695 0.51581055 8.62887695 0.51581055 9.71679688 0.59570312 C11.47821999 0.72574107 13.23916173 0.86226897 15 1 C15 1.33 15 1.66 15 2 C14.11248047 2.09087891 14.11248047 2.09087891 13.20703125 2.18359375 C9.09021792 2.62012371 5.04455467 3.08671346 1 4 C1.17402344 4.53109375 1.34804687 5.0621875 1.52734375 5.609375 C2.4623473 10.33848387 1.46505136 15.24614166 1 20 C6.61 20 12.22 20 18 20 C18 17.256875 18 14.51375 18 11.6875 C18 7.79166667 18 3.89583333 18 0 C18.99 0.33 19.98 0.66 21 1 C21.02314035 10.09232091 21.04092375 19.18463173 21.05181217 28.27697563 C21.05703728 32.49862582 21.06412822 36.72025591 21.07543945 40.94189453 C21.0862815 45.01376672 21.09227964 49.08561953 21.09487724 53.15750504 C21.09672911 54.71328156 21.10034518 56.26905698 21.10573006 57.82482529 C21.11295795 59.99896307 21.1139902 62.17302016 21.11352539 64.34716797 C21.115746 65.58626923 21.11796661 66.82537048 21.12025452 68.10202026 C21 71 21 71 20 73 C14.72 73 9.44 73 4 73 C4.495 72.01 4.495 72.01 5 71 C11.435 70.505 11.435 70.505 18 70 C18 55.15 18 40.3 18 25 C16.02 25 14.04 25 12 25 C12 25.66 12 26.32 12 27 C9.69 27.66 7.38 28.32 5 29 C9.07108975 24.31207847 10.51552692 23.8527066 17 22 C11.39 21.67 5.78 21.34 0 21 C-0.19378567 17.68775576 -0.38032505 14.37538512 -0.5625 11.0625 C-0.61857422 10.11697266 -0.67464844 9.17144531 -0.73242188 8.19726562 C-0.78076172 7.29814453 -0.82910156 6.39902344 -0.87890625 5.47265625 C-0.9260376 4.64000244 -0.97316895 3.80734863 -1.02172852 2.94946289 C-1 1 -1 1 0 0 Z " fill="#E8FCFE" transform="translate(153,60)"/>
<path d="M0 0 C3 1.875 3 1.875 5 4 C5 4.66 5 5.32 5 6 C3.35 6 1.7 6 0 6 C-0.33 5.34 -0.66 4.68 -1 4 C-3.91652174 3.83318891 -3.91652174 3.83318891 -7 4 C-9.29575603 6.29575603 -9.32339599 7.00842525 -9.625 10.125 C-9.810625 12.043125 -9.810625 12.043125 -10 14 C-9.34 14 -8.68 14 -8 14 C-8 14.66 -8 15.32 -8 16 C-4.535 15.505 -4.535 15.505 -1 15 C-1 14.34 -1 13.68 -1 13 C-2.32 12.67 -3.64 12.34 -5 12 C-4.67 10.68 -4.34 9.36 -4 8 C-1.03 8 1.94 8 5 8 C5.48309179 15.24637681 5.48309179 15.24637681 3.4375 18.4375 C0.1454077 20.54781557 -2.08699373 21 -6 21 C-9.15111726 19.27580377 -11.47006319 17.52993681 -14 15 C-14.77200992 10.43077852 -14.59362988 6.94980781 -12.125 3 C-8.4613204 -0.44816904 -4.8812336 -0.6999857 0 0 Z " fill="#E1FCFE" transform="translate(100,138)"/>
<path d="M0 0 C4.36680901 0.30941294 7.84925914 0.60822332 11.796875 2.58203125 C14.34818136 5.89872952 14.78501712 8.88176218 14.671875 13.01953125 C14.18793348 16.32026057 13.33854014 17.7695324 10.671875 19.76953125 C6.45634956 22.63538742 2.60964031 22.52338485 -2.328125 22.01953125 C-3.239697 17.36762018 -3.46242256 12.94413835 -3.453125 8.20703125 C-3.45699219 7.52705078 -3.46085937 6.84707031 -3.46484375 6.14648438 C-3.45264531 0.02896515 -3.45264531 0.02896515 0 0 Z M0.671875 4.01953125 C0.671875 8.63953125 0.671875 13.25953125 0.671875 18.01953125 C5.9805599 17.4377828 5.9805599 17.4377828 10.671875 15.01953125 C11.03485436 13.04206003 11.03485436 13.04206003 10.859375 10.89453125 C10.7975 9.61578125 10.735625 8.33703125 10.671875 7.01953125 C9.681875 6.68953125 8.691875 6.35953125 7.671875 6.01953125 C7.671875 5.35953125 7.671875 4.69953125 7.671875 4.01953125 C5.361875 4.01953125 3.051875 4.01953125 0.671875 4.01953125 Z " fill="#E2FDFE" transform="translate(57.328125,136.98046875)"/>
<path d="M0 0 C0.90722656 1.6105957 0.90722656 1.6105957 1.640625 3.67578125 C1.90617188 4.42150391 2.17171875 5.16722656 2.4453125 5.93554688 C2.71085937 6.71994141 2.97640625 7.50433594 3.25 8.3125 C3.53101563 9.08529297 3.81203125 9.85808594 4.1015625 10.65429688 C6.30533975 16.99833881 6.30533975 16.99833881 5 21 C4.34 21 3.68 21 3 21 C2.814375 20.360625 2.62875 19.72125 2.4375 19.0625 C1.06573526 16.6034578 1.06573526 16.6034578 -2.5 16.1875 C-5.84964703 15.71881502 -5.84964703 15.71881502 -8 17 C-8.65213292 19.02463255 -8.65213292 19.02463255 -9 21 C-10.32 21 -11.64 21 -13 21 C-14.18044436 17.45866692 -13.82021319 17.0268857 -12.25 13.8125 C-10.79411334 10.76112112 -9.55475687 7.77364871 -8.5 4.5625 C-7 1 -7 1 -5 -0.5625 C-3 -1 -3 -1 0 0 Z M-4 4 C-5.76462683 7.08809695 -6 8.23312136 -6 12 C-4.35 12 -2.7 12 -1 12 C-1.44703986 7.52116304 -1.44703986 7.52116304 -4 4 Z " fill="#DFFBFD" transform="translate(150,138)"/>
<path d="M0 0 C6.6 0 13.2 0 20 0 C20.7996208 3.19848321 21.12614663 5.35058692 21.12939453 8.55322266 C21.13254669 9.44739899 21.13569885 10.34157532 21.13894653 11.2628479 C21.1369223 12.22024872 21.13489807 13.17764954 21.1328125 14.1640625 C21.13424759 15.64669083 21.13424759 15.64669083 21.13571167 17.15927124 C21.13639145 19.24550439 21.13455127 21.33173968 21.13037109 23.41796875 C21.12500864 26.61983962 21.13032878 29.82157093 21.13671875 33.0234375 C21.13605816 35.04947948 21.13477738 37.07552137 21.1328125 39.1015625 C21.13483673 40.06301178 21.13686096 41.02446106 21.13894653 42.01504517 C21.13579437 42.90291718 21.13264221 43.79078918 21.12939453 44.70556641 C21.12859894 45.48848053 21.12780334 46.27139465 21.12698364 47.07803345 C21 49 21 49 20 51 C13.4 50.67 6.8 50.34 0 50 C-0.97342373 47.07972881 -1.09473842 45.37082553 -1.02172852 42.3449707 C-1.00163223 41.40422195 -0.98153595 40.46347321 -0.96083069 39.49421692 C-0.93379562 38.48163315 -0.90676056 37.46904938 -0.87890625 36.42578125 C-0.85529526 35.38681198 -0.83168427 34.34784271 -0.80735779 33.27738953 C-0.73072211 29.95562067 -0.64669703 26.63408498 -0.5625 23.3125 C-0.50927924 21.06186041 -0.45653884 18.8112094 -0.40429688 16.56054688 C-0.27510699 11.04021664 -0.13928919 5.52008427 0 0 Z M1 1 C0.97535704 7.67520882 0.95716733 14.3503914 0.94506836 21.02563477 C0.94002675 23.29842591 0.93319363 25.5712138 0.92456055 27.84399414 C0.91248739 31.10303551 0.90677013 34.36203417 0.90234375 37.62109375 C0.89718246 38.64400009 0.89202118 39.66690643 0.88670349 40.72080994 C0.88662796 41.66170975 0.88655243 42.60260956 0.88647461 43.57202148 C0.884254 44.40475082 0.88203339 45.23748016 0.87974548 46.09544373 C0.78995168 48.01033274 0.78995168 48.01033274 2 49 C7.61 49 13.22 49 19 49 C19 33.16 19 17.32 19 1 C13.06 1 7.12 1 1 1 Z " fill="#DBFDFE" transform="translate(103,82)"/>
<path d="M0 0 C3.14581423 -0.02888514 6.29159469 -0.04675923 9.4375 -0.0625 C10.33533203 -0.07087891 11.23316406 -0.07925781 12.15820312 -0.08789062 C13.01220703 -0.09111328 13.86621094 -0.09433594 14.74609375 -0.09765625 C15.93223267 -0.10551147 15.93223267 -0.10551147 17.14233398 -0.11352539 C19 0 19 0 20 1 C20.09319449 2.5348297 20.117458 4.07392082 20.11352539 5.61157227 C20.11344986 6.59251358 20.11337433 7.5734549 20.11329651 8.5841217 C20.10813522 9.6507756 20.10297394 10.7174295 20.09765625 11.81640625 C20.0962413 12.9025975 20.09482635 13.98878876 20.09336853 15.1078949 C20.08775048 18.59279075 20.07519492 22.07762342 20.0625 25.5625 C20.05748733 27.91861887 20.05292402 30.27473874 20.04882812 32.63085938 C20.03777519 38.42059464 20.02101951 44.21029281 20 50 C17.703463 51.1482685 16.41686833 51.11561175 13.8671875 51.09765625 C13.06152344 51.09443359 12.25585938 51.09121094 11.42578125 51.08789062 C10.16314453 51.07532227 10.16314453 51.07532227 8.875 51.0625 C8.02550781 51.05798828 7.17601562 51.05347656 6.30078125 51.04882812 C4.20049091 51.03702874 2.1002367 51.01909306 0 51 C-0.8604464 48.04332303 -1.0994281 45.48848928 -1.02172852 42.41503906 C-1.00163223 41.51440735 -0.98153595 40.61377563 -0.96083069 39.68585205 C-0.93379562 38.72217712 -0.90676056 37.7585022 -0.87890625 36.765625 C-0.85529526 35.77246277 -0.83168427 34.77930054 -0.80735779 33.75604248 C-0.73084932 30.58721162 -0.6467696 27.41863304 -0.5625 24.25 C-0.5092665 22.10027272 -0.45652619 19.95053316 -0.40429688 17.80078125 C-0.27525153 12.53369842 -0.13999115 7.26680265 0 2 C0.33 2 0.66 2 1 2 C1.33 17.18 1.66 32.36 2 48 C7.61 48.33 13.22 48.66 19 49 C18.67 33.16 18.34 17.32 18 1 C12.06 1 6.12 1 0 1 C0 0.67 0 0.34 0 0 Z " fill="#DAFBFE" transform="translate(54,82)"/>
<path d="M0 0 C5.28 0 10.56 0 16 0 C16 0.99 16 1.98 16 3 C11.25 4.125 11.25 4.125 9 3 C9.09539062 4.13179687 9.19078125 5.26359375 9.2890625 6.4296875 C9.40159885 7.91141612 9.51354758 9.39318945 9.625 10.875 C9.68945312 11.62136719 9.75390625 12.36773437 9.8203125 13.13671875 C9.96087365 15.0870047 9.98759849 17.04469467 10 19 C9.34 19.66 8.68 20.32 8 21 C7.01 21 6.02 21 5 21 C5 15.06 5 9.12 5 3 C3.35 3 1.7 3 0 3 C0 2.01 0 1.02 0 0 Z " fill="#E7FCFD" transform="translate(120,138)"/>
<path d="M0 0 C0.99 0.33 1.98 0.66 3 1 C3.33 6.28 3.66 11.56 4 17 C6.31 17 8.62 17 11 17 C11.66 17.99 12.32 18.98 13 20 C10.44946069 22.55053931 2.09014574 21.7899901 -1 22 C-0.67 14.74 -0.34 7.48 0 0 Z " fill="#E3FEFF" transform="translate(161,137)"/>
<path d="M0 0 C2.31 0 4.62 0 7 0 C7 6.6 7 13.2 7 20 C0.4 20 -6.2 20 -13 20 C-11.875 9.875 -11.875 9.875 -8 6 C-8.48144941 10.81449408 -8.8008587 13.60171741 -11 18 C-5.39 18 0.22 18 6 18 C6 12.72 6 7.44 6 2 C3.36 2 0.72 2 -2 2 C-1.34 1.34 -0.68 0.68 0 0 Z " fill="#DDFCFF" transform="translate(89,83)"/>
<path d="M0 0 C0.99 0.33 1.98 0.66 3 1 C3 7.6 3 14.2 3 21 C1.68 21 0.36 21 -1 21 C-1.9438817 16.41442548 -1.98924907 12.34890369 -1.625 7.6875 C-1.53476563 6.45386719 -1.44453125 5.22023437 -1.3515625 3.94921875 C-1 1 -1 1 0 0 Z " fill="#E1FEFE" transform="translate(78,137)"/>
<path d="M0 0 C0.99 0 1.98 0 3 0 C3 7.26 3 14.52 3 22 C1.68 21.34 0.36 20.68 -1 20 C-0.67 13.4 -0.34 6.8 0 0 Z " fill="#EDFEFE" transform="translate(111,137)"/>
<path d="M0 0 C1.36088895 4.08266686 0.68398693 6.75928101 0 11 C-0.33 11.33 -0.66 11.66 -1 12 C-1.25384564 16.09779385 -1.18523095 20.20777951 -1.1875 24.3125 C-1.19974609 25.46685547 -1.21199219 26.62121094 -1.22460938 27.81054688 C-1.22654297 28.92107422 -1.22847656 30.03160156 -1.23046875 31.17578125 C-1.23457764 32.19583252 -1.23868652 33.21588379 -1.24291992 34.2668457 C-0.9984039 37.01795814 -0.41268867 38.65508378 1 41 C-0.32 40.67 -1.64 40.34 -3 40 C-3.0498487 35.87406157 -3.08592957 31.74824248 -3.10986328 27.62207031 C-3.11985248 26.22164858 -3.13344854 24.82124732 -3.15087891 23.42089844 C-3.35354283 6.70708565 -3.35354283 6.70708565 0 0 Z " fill="#E4FDFE" transform="translate(155,92)"/>
<path d="M0 0 C2.97 0 5.94 0 9 0 C9 2.64 9 5.28 9 8 C8.67 8 8.34 8 8 8 C8 6.35 8 4.7 8 3 C7.34 3 6.68 3 6 3 C5.67 3.99 5.34 4.98 5 6 C3.02 5.34 1.04 4.68 -1 4 C-0.67 2.68 -0.34 1.36 0 0 Z " fill="#D5FCFE" transform="translate(96,146)"/>
<path d="M0 0 C0.66 0.33 1.32 0.66 2 1 C1.67 1.66 1.34 2.32 1 3 C0.34 3 -0.32 3 -1 3 C-1 7.62 -1 12.24 -1 17 C-4.26456927 13.73543073 -4.43101616 13.3742569 -4.4375 9.0625 C-4.34734609 5.42982787 -4.26008728 4.34136456 -2 1.375 C-1.34 0.92125 -0.68 0.4675 0 0 Z " fill="#E2FCFE" transform="translate(129,83)"/>
<path d="M0 0 C4.39198197 0.4391982 6.41933362 1.5201431 9.75 4.375 C10.625 6.625 10.625 6.625 10.75 8.375 C10.09 8.375 9.43 8.375 8.75 8.375 C8.42 7.385 8.09 6.395 7.75 5.375 C4.90587683 3.52506148 2.34509249 3.04515522 -1 2.75 C-1.79921875 2.67523438 -2.5984375 2.60046875 -3.421875 2.5234375 C-4.02515625 2.47445312 -4.6284375 2.42546875 -5.25 2.375 C-3.25 0.375 -3.25 0.375 0 0 Z " fill="#E9FDFE" transform="translate(136.25,80.625)"/>
<path d="M0 0 C0.66 0 1.32 0 2 0 C2 2.31 2 4.62 2 7 C-2.455 7.495 -2.455 7.495 -7 8 C-6.34 7.67 -5.68 7.34 -5 7 C-5 6.34 -5 5.68 -5 5 C-3.35 4.34 -1.7 3.68 0 3 C0 2.01 0 1.02 0 0 Z " fill="#F2FDFD" transform="translate(102,149)"/>
<path d="M0 0 C0.99 0 1.98 0 3 0 C2.67 0.99 2.34 1.98 2 3 C1.77202438 5.73289293 1.58331813 8.45042204 1.4375 11.1875 C1.39431641 11.93708984 1.35113281 12.68667969 1.30664062 13.45898438 C1.20077315 15.30578375 1.0999024 17.15286834 1 19 C1.66 19 2.32 19 3 19 C2.67 19.99 2.34 20.98 2 22 C-0.01131557 20.35646785 -0.93485931 19.54586488 -1.2487793 16.9152832 C-1.19117432 16.13499756 -1.13356934 15.35471191 -1.07421875 14.55078125 C-1.01943359 13.70322266 -0.96464844 12.85566406 -0.90820312 11.98242188 C-0.79895508 10.66081055 -0.79895508 10.66081055 -0.6875 9.3125 C-0.62626953 8.41982422 -0.56503906 7.52714844 -0.50195312 6.60742188 C-0.34874168 4.40353414 -0.18091866 2.20175794 0 0 Z " fill="#D6FEFE" transform="translate(111,137)"/>
<path d="M0 0 C0.33 0 0.66 0 1 0 C1.22127098 2.29045368 1.4266504 4.58244764 1.625 6.875 C1.74101562 8.15117187 1.85703125 9.42734375 1.9765625 10.7421875 C1.98429688 11.81726563 1.99203125 12.89234375 2 14 C1.34 14.66 0.68 15.32 0 16 C-0.99 16 -1.98 16 -3 16 C-3 13.69 -3 11.38 -3 9 C-2.67 10.32 -2.34 11.64 -2 13 C-1.34 13 -0.68 13 0 13 C0 8.71 0 4.42 0 0 Z " fill="#D4FEFF" transform="translate(128,143)"/>
<path d="M0 0 C2.64 0.33 5.28 0.66 8 1 C8 1.99 8 2.98 8 4 C7.34 4 6.68 4 6 4 C6 4.66 6 5.32 6 6 C3.5625 5.25 3.5625 5.25 1 4 C0.1875 1.875 0.1875 1.875 0 0 Z " fill="#EDF9FA" transform="translate(127,97)"/>
<path d="M0 0 C0.556875 0.9590625 0.556875 0.9590625 1.125 1.9375 C3.58052793 4.63858072 5.44578805 4.68407005 9 5 C9 5.66 9 6.32 9 7 C6.03 7 3.06 7 0 7 C0 4.69 0 2.38 0 0 Z " fill="#EFFDFC" transform="translate(162,150)"/>
<path d="M0 0 C-0.33 0.66 -0.66 1.32 -1 2 C-6.28 2 -11.56 2 -17 2 C-16.67 1.34 -16.34 0.68 -16 0 C-13.1640625 -0.44921875 -13.1640625 -0.44921875 -9.625 -0.6875 C-8.46226562 -0.77386719 -7.29953125 -0.86023438 -6.1015625 -0.94921875 C-3 -1 -3 -1 0 0 Z " fill="#DEFEFE" transform="translate(174,131)"/>
<path d="M0 0 C0.99 0.99 1.98 1.98 3 3 C1.12175109 4.87824891 -2.03935276 4.39102397 -4.5625 4.5625 C-5.76003906 4.64628906 -6.95757812 4.73007813 -8.19140625 4.81640625 C-9.11824219 4.87699219 -10.04507813 4.93757812 -11 5 C-10.67 4.01 -10.34 3.02 -10 2 C-6.7 2.33 -3.4 2.66 0 3 C0 2.01 0 1.02 0 0 Z " fill="#D2FDFE" transform="translate(171,154)"/>
<path d="M0 0 C1.12377697 3.30435084 0.89554742 5.0506862 -0.4375 8.25 C-0.72496094 8.95640625 -1.01242188 9.6628125 -1.30859375 10.390625 C-1.53675781 10.92171875 -1.76492187 11.4528125 -2 12 C-2.33 12 -2.66 12 -3 12 C-3.2954439 6.97745369 -2.98514628 4.10457614 0 0 Z " fill="#E3FDFD" transform="translate(80,89)"/>
<path d="M0 0 C1.32 0 2.64 0 4 0 C3.67 0.99 3.34 1.98 3 3 C2.67 2.67 2.34 2.34 2 2 C1.34 3.32 0.68 4.64 0 6 C-0.66 5.67 -1.32 5.34 -2 5 C-1.125 1.125 -1.125 1.125 0 0 Z " fill="#F6FDFB" transform="translate(145,139)"/>
</svg>
