<?xml version="1.0" encoding="UTF-8"?>
<svg version="1.1" xmlns="http://www.w3.org/2000/svg" width="1280" height="373">
<path d="M0 0 C20.79 0 41.58 0 63 0 C63.33 4.62 63.66 9.24 64 14 C69.61 14 75.22 14 81 14 C81.226875 16.64 81.45375 19.28 81.6875 22 C83.48328128 39.22224827 89.32749724 57.02088449 101.75 69.58203125 C103 71 103 71 103 73 C103.8559375 73.26941406 104.711875 73.53882812 105.59375 73.81640625 C109.0110909 75.00385383 112.21336732 76.428567 115.5 77.9375 C126.27921707 82.68778548 137.29763256 84.28644101 149 85 C149 89.62 149 94.24 149 99 C154.94 99.33 160.88 99.66 167 100 C167 120.46 167 140.92 167 162 C138.14093514 162 111.69888241 156.05570577 87.21704102 140.34741211 C86.23695572 139.71975449 85.25687042 139.09209686 84.24708557 138.44541931 C83.50554733 137.96843094 82.76400909 137.49144257 82 137 C81.99853344 137.677318 81.99706688 138.354636 81.99555588 139.05247879 C81.95830975 155.62485317 81.89906261 172.19699362 81.81609726 188.76919937 C81.77649023 196.78379855 81.74400556 204.79830214 81.72900391 212.81298828 C81.71589131 219.80836305 81.68868625 226.80352587 81.64538693 233.79878116 C81.62298505 237.49389898 81.60707627 241.18875754 81.60811615 244.88394928 C81.60727779 278.14294376 76.54795121 308.23091291 54 334 C53.41089844 334.7321875 52.82179687 335.464375 52.21484375 336.21875 C35.01542922 356.96029449 8.23911892 369.15436825 -18 373 C-55.4739736 374.9545458 -85.64980419 365.96135941 -113.6875 340.875 C-114.39390625 340.23046875 -115.1003125 339.5859375 -115.828125 338.921875 C-118.12792458 336.88680055 -120.51208142 335.00808896 -122.9375 333.125 C-141.85851711 318.03497708 -154.0711392 298.06995697 -161 275 C-161.3196875 273.95972656 -161.639375 272.91945313 -161.96875 271.84765625 C-166.34920091 254.46781167 -166.14824067 232.15385453 -161 215 C-160.67128906 213.80503906 -160.34257812 212.61007813 -160.00390625 211.37890625 C-155.49313371 196.37941693 -147.91058085 183.07622629 -138 171 C-137.42765625 170.27554688 -136.8553125 169.55109375 -136.265625 168.8046875 C-131.52978295 163.05402215 -125.88815283 158.52682501 -120 154 C-119.21882813 153.3915625 -118.43765625 152.783125 -117.6328125 152.15625 C-95.26977087 135.59103398 -67.52098214 128.9931667 -40 131 C-38.35 131.33 -36.7 131.66 -35 132 C-35 136.62 -35 141.24 -35 146 C-31.65875 145.9690625 -31.65875 145.9690625 -28.25 145.9375 C-24.1653166 145.89967886 -20.98042908 146.00489273 -17 147 C-17 168.12 -17 189.24 -17 211 C-20.63 210.34 -24.26 209.68 -28 209 C-42.97941974 208.03978079 -55.80964583 212.54171119 -67.25 222.1875 C-77.25636307 231.70148648 -82.88666633 243.48340436 -83.47021484 257.31225586 C-83.62010861 268.32207591 -81.42660452 278.40595087 -74.953125 287.51171875 C-74 289 -74 289 -74 291 C-73.28972656 291.13277344 -72.57945313 291.26554687 -71.84765625 291.40234375 C-68.99782276 292.00045695 -66.23975002 292.77329489 -63.4375 293.5625 C-47.98316853 297.40243793 -34.29090114 293.7703743 -20.8828125 285.73046875 C-10.36648675 278.63092588 -3.61785362 266.25179951 -1 254 C-0.90879148 252.51574677 -0.8664676 251.0280407 -0.8613348 249.54099655 C-0.85586036 248.64824988 -0.85038591 247.75550321 -0.84474558 246.83570361 C-0.84376747 245.85905411 -0.84278936 244.88240461 -0.84178162 243.87615967 C-0.83684364 242.83551967 -0.83190566 241.79487967 -0.82681805 240.72270513 C-0.81142228 237.22496911 -0.80307676 233.72725149 -0.79467773 230.22949219 C-0.78510085 227.72646929 -0.77509088 225.22344803 -0.76467896 222.72042847 C-0.74321694 217.32606289 -0.72477663 211.93169986 -0.70907402 206.53731537 C-0.68636545 198.73793386 -0.65822399 190.93857941 -0.62875474 183.13922086 C-0.58109094 170.48540398 -0.53782347 157.83157604 -0.49731445 145.17773438 C-0.45795336 132.88540791 -0.41652567 120.59309127 -0.37231445 108.30078125 C-0.36822804 107.16431228 -0.36822804 107.16431228 -0.36405908 106.00488433 C-0.3503795 102.20401265 -0.33665925 98.40314111 -0.32291877 94.60226965 C-0.20897302 63.06819906 -0.10296825 31.53410882 0 0 Z " fill="#000000" transform="translate(164,0)"/>
<path d="M0 0 C2.13684352 -0.00217577 4.27316005 -0.02036686 6.40991211 -0.03930664 C30.99999048 -0.14080216 53.30147426 5.23019202 71.97045898 22.18530273 C72.59178711 22.71381836 73.21311523 23.24233398 73.85327148 23.78686523 C87.2933081 35.97666588 95.72826759 54.95741649 97.19018555 72.87890625 C98.26167241 98.25018456 91.84431856 119.01046231 74.97045898 138.18530273 C60.31621622 153.6536701 39.77895464 161.97298751 18.70909119 162.57121277 C14.5856762 162.63657482 10.46419389 162.64819532 6.34033203 162.63134766 C3.17405921 162.62284596 0.00960132 162.65167638 -3.15649414 162.68334961 C-29.25477666 162.77573652 -50.34181256 155.83973531 -69.55297852 137.81811523 C-86.13716871 120.55470906 -91.72883265 98.71864781 -91.33422852 75.43530273 C-90.67736599 57.34715441 -83.24009926 40.49317692 -71.02954102 27.18530273 C-70.36567383 26.42991211 -69.70180664 25.67452148 -69.01782227 24.89624023 C-50.62718985 5.11186303 -25.92520283 -0.00294037 0 0 Z M-26.70922852 56.02905273 C-34.19816386 65.4181657 -36.89410106 75.28959695 -36.02954102 87.18530273 C-34.20774667 97.5448282 -28.25813535 106.67708512 -20.02954102 113.18530273 C-10.26013238 119.21323572 -0.14041211 121.90312862 11.21655273 119.49780273 C22.42508595 116.38792069 30.14850224 110.62410763 36.97045898 101.18530273 C41.85238914 91.73095961 43.62486856 81.56721497 40.84545898 71.18530273 C37.41664615 61.02644797 31.71557155 52.74265662 22.11889648 47.68139648 C5.03191206 39.76908575 -13.48327553 41.51126248 -26.70922852 56.02905273 Z " fill="#000000" transform="translate(1011.029541015625,144.814697265625)"/>
<path d="M0 0 C15.84 0 31.68 0 48 0 C48.33 29.37 48.66 58.74 49 89 C55.06375 81.74 61.1275 74.48 67.375 67 C80.43982078 52.72808683 91.1161749 42.94144476 110.84441757 41.98027039 C124.24535923 41.56568586 137.77050472 42.94471476 151 45 C146.98455792 49.81230553 142.79016026 54.35818939 138.3515625 58.78125 C137.42722916 59.70701843 137.42722916 59.70701843 136.48422241 60.65148926 C135.18960252 61.94678485 133.89373823 63.24083779 132.59667969 64.53369141 C130.63361828 66.4914052 128.67594262 68.45438971 126.71875 70.41796875 C121.19636884 75.94325006 115.69823638 81.4356614 109.74414062 86.50048828 C106.52169483 89.27096169 103.476904 92.21930674 100.4375 95.1875 C99.79748047 95.79013672 99.15746094 96.39277344 98.49804688 97.01367188 C97.89927734 97.60083984 97.30050781 98.18800781 96.68359375 98.79296875 C96.14275146 99.3139917 95.60190918 99.83501465 95.04467773 100.37182617 C93.79224463 101.95607017 93.79224463 101.95607017 94.18359375 103.96679688 C95.04854279 106.12089246 96.0529404 107.8331972 97.37890625 109.73828125 C97.87970703 110.46402344 98.38050781 111.18976563 98.89648438 111.9375 C99.44626953 112.72125 99.99605469 113.505 100.5625 114.3125 C101.13677734 115.14136719 101.71105469 115.97023438 102.30273438 116.82421875 C104.19591481 119.55363824 106.09762904 122.27697986 108 125 C109.32204632 126.89943916 110.64365625 128.79918213 111.96484375 130.69921875 C113.99371805 133.61644963 116.02317955 136.53325881 118.05493164 139.44848633 C122.75618534 146.19665159 127.41348324 152.97327116 132.04663086 159.76831055 C137.18929868 167.30009804 142.401108 174.78337105 147.62109375 182.26171875 C149.41820431 184.83829896 151.21009259 187.41841315 153 190 C153.66878174 190.95398682 153.66878174 190.95398682 154.35107422 191.92724609 C157 195.76998849 157 195.76998849 157 198 C149.95884713 198.4341222 142.92117095 198.72988353 135.86962891 198.93383789 C133.47671683 199.01889554 131.08467735 199.13460244 128.69482422 199.2824707 C109.43642833 200.44343783 109.43642833 200.44343783 103.79852295 196.43466187 C100.00467868 192.49035054 97.45707786 187.9534168 95.04907227 183.07131958 C93.69947614 180.40663672 92.03608583 178.06298854 90.2578125 175.66796875 C89.21316659 174.1747415 88.16888912 172.68125641 87.125 171.1875 C85.95316077 169.51169374 84.78128458 167.83591332 83.609375 166.16015625 C83.02091797 165.31855957 82.43246094 164.47696289 81.82617188 163.60986328 C79.93281825 160.90398758 78.0370188 158.1998395 76.140625 155.49609375 C75.5101123 154.59673096 74.87959961 153.69736816 74.22998047 152.77075195 C73.02639456 151.05408171 71.82232201 149.33775252 70.61767578 147.62182617 C67.6923273 143.44762202 64.80531983 139.25587545 62 135 C56.79014131 137.60492934 52.3731814 141.25882715 49 146 C47.89577978 149.99771308 47.92538585 153.80926313 48 157.9375 C47.98912354 159.05817871 47.97824707 160.17885742 47.96704102 161.33349609 C47.94098158 164.88998879 47.96966914 168.44358601 48 172 C47.99190439 174.42058775 47.98022376 176.84116633 47.96484375 179.26171875 C47.92835921 185.17626808 47.96599864 191.08376416 48 197 C32.16 197 16.32 197 0 197 C0 131.99 0 66.98 0 0 Z " fill="#000000" transform="translate(1123,109)"/>
<path d="M0 0 C15.51 0 31.02 0 47 0 C47.33 29.37 47.66 58.74 48 89 C53.28 83.72 58.56 78.44 64 73 C66.64 70.69 69.28 68.38 72 66 C73.92630758 63.36403104 73.92630758 63.36403104 75.3359375 60.72265625 C80.05105009 53.72452619 84.86074828 47.82601191 93 45 C111.60790053 41.57376044 132.22995593 43.71278498 151 45 C147.50035798 49.1566737 143.94388859 53.18348922 140.1015625 57.03125 C138.76351562 58.37123047 138.76351562 58.37123047 137.3984375 59.73828125 C136.48320313 60.64964844 135.56796875 61.56101563 134.625 62.5 C133.26375 63.86705078 133.26375 63.86705078 131.875 65.26171875 C128.03760177 69.09358758 124.20965872 72.88581312 120.0859375 76.41015625 C114.42376249 81.26775932 109.24989627 86.64433087 104 91.9375 C102.92862113 93.01390654 101.85700818 94.09008014 100.78515625 95.16601562 C98.18740362 97.77466745 95.59282038 100.38644471 93 103 C97.08991877 109.51877758 101.2644864 115.93447771 105.75 122.1875 C106.79637193 123.65828605 107.84192601 125.12965424 108.88671875 126.6015625 C109.40669434 127.33407227 109.92666992 128.06658203 110.46240234 128.82128906 C112.85775783 132.21540661 115.21329037 135.63634079 117.5625 139.0625 C118.01568604 139.72330566 118.46887207 140.38411133 118.93579102 141.06494141 C120.29120751 143.04282936 121.6456403 145.02138831 123 147 C130.68643686 158.21835751 138.43279596 169.39427129 146.203125 180.5546875 C146.82896484 181.45541992 147.45480469 182.35615234 148.09960938 183.28417969 C149.4027615 185.14649523 150.71717967 187.0009632 152.04101562 188.84863281 C152.68232422 189.74678711 153.32363281 190.64494141 153.984375 191.5703125 C154.56413086 192.37484863 155.14388672 193.17938477 155.74121094 194.00830078 C157 196 157 196 157 198 C149.94001652 198.3826855 142.8827273 198.64390047 135.81469727 198.82397461 C133.41524382 198.89907361 131.01646936 199.00119958 128.61938477 199.1315918 C109.28495529 200.15638488 109.28495529 200.15638488 103.8767395 196.60620117 C100.35714096 193.16935626 98.03456109 189.19029122 95.89071655 184.79434204 C94.78630801 182.56951904 93.41964251 180.62461919 91.94140625 178.6328125 C91.14624349 177.46503259 90.35321034 176.29579924 89.5625 175.125 C85.73288963 169.50898043 81.86004018 163.92654582 77.9375 158.375 C77.4422583 157.67318604 76.9470166 156.97137207 76.43676758 156.24829102 C73.98419457 152.7797498 71.51571811 149.32402327 69.01953125 145.88671875 C68.55232666 145.24105957 68.08512207 144.59540039 67.60375977 143.93017578 C66.72170343 142.71327208 65.83565984 141.49924544 64.94506836 140.28857422 C62 136.22241691 62 136.22241691 62 134 C61.49210938 134.44730469 60.98421875 134.89460937 60.4609375 135.35546875 C59.77257812 135.96003906 59.08421875 136.56460938 58.375 137.1875 C57.70210937 137.77917969 57.02921875 138.37085938 56.3359375 138.98046875 C54 141 54 141 50.90429688 142.8984375 C48.77063079 144.69018952 48.07553957 145.67719021 47.43399048 148.41877747 C47.2081988 151.5071222 47.16947201 154.54797911 47.1953125 157.64453125 C47.18160614 158.7694548 47.16789978 159.89437836 47.15377808 161.0533905 C47.11644 164.64016574 47.12019595 168.22555779 47.125 171.8125 C47.1068761 174.24676647 47.08607439 176.68101459 47.0625 179.11523438 C47.00557972 185.07763327 47.00424304 191.03640075 47 197 C31.49 197 15.98 197 0 197 C0 131.99 0 66.98 0 0 Z " fill="#000000" transform="translate(620,109)"/>
<path d="M0 0 C49.17 0 98.34 0 149 0 C147.72462647 5.7391809 146.4194865 11.23685123 144.65234375 16.80859375 C144.43558487 17.50138931 144.21882599 18.19418488 143.99549866 18.90797424 C143.54262231 20.35285769 143.08797478 21.79718713 142.6315918 23.2409668 C141.93179352 25.45555881 141.23793762 27.67194909 140.54492188 29.88867188 C140.10190458 31.29958662 139.65855734 32.71039782 139.21484375 34.12109375 C139.00754135 34.78249863 138.80023895 35.4439035 138.58665466 36.12535095 C137.83608675 38.49499746 137.11359919 40.77280163 136 43 C123.13 43 110.26 43 97 43 C97 93.82 97 144.64 97 197 C80.83 197 64.66 197 48 197 C48 145.85 48 94.7 48 42 C32.16 42 16.32 42 0 42 C0 28.14 0 14.28 0 0 Z " fill="#000000" transform="translate(787,109)"/>
<path d="M0 0 C49.17 0 98.34 0 149 0 C147.72462647 5.7391809 146.4194865 11.23685123 144.65234375 16.80859375 C144.43558487 17.50138931 144.21882599 18.19418488 143.99549866 18.90797424 C143.54262231 20.35285769 143.08797478 21.79718713 142.6315918 23.2409668 C141.93179352 25.45555881 141.23793762 27.67194909 140.54492188 29.88867188 C140.10190458 31.29958662 139.65855734 32.71039782 139.21484375 34.12109375 C139.00754135 34.78249863 138.80023895 35.4439035 138.58665466 36.12535095 C137.83608675 38.49499746 137.11359919 40.77280163 136 43 C123.13 43 110.26 43 97 43 C97 93.82 97 144.64 97 197 C80.83 197 64.66 197 48 197 C48 145.85 48 94.7 48 42 C32.16 42 16.32 42 0 42 C0 28.14 0 14.28 0 0 Z " fill="#000000" transform="translate(396,109)"/>
<path d="M0 0 C6.27 0.33 12.54 0.66 19 1 C19 21.46 19 41.92 19 63 C-9.85906486 63 -36.30111759 57.05570577 -60.78295898 41.34741211 C-61.76304428 40.71975449 -62.74312958 40.09209686 -63.75291443 39.44541931 C-64.49445267 38.96843094 -65.23599091 38.49144257 -66 38 C-66.00146656 38.677318 -66.00293312 39.354636 -66.00444412 40.05247879 C-66.04169025 56.62485317 -66.10093739 73.19699362 -66.18390274 89.76919937 C-66.22350977 97.78379855 -66.25599444 105.79830214 -66.27099609 113.81298828 C-66.28410869 120.80836305 -66.31131375 127.80352587 -66.35461307 134.79878116 C-66.37701495 138.49389898 -66.39292373 142.18875754 -66.39188385 145.88394928 C-66.39272221 179.14294376 -71.45204879 209.23091291 -94 235 C-94.58910156 235.7321875 -95.17820313 236.464375 -95.78515625 237.21875 C-112.98457078 257.96029449 -139.76088108 270.15436825 -166 274 C-200.28836883 275.78839287 -230.71023378 268.95673318 -257 246 C-258.37776533 244.36987171 -259.72766949 242.71368918 -261 241 C-257.4120537 242.337762 -254.06865738 243.98070859 -250.68432617 245.76708984 C-224.39177417 259.53218431 -193.92040595 262.39282422 -165.40429688 253.78710938 C-159.00904069 251.69345524 -152.98173667 249.06961769 -147 246 C-146.4028418 245.70254883 -145.80568359 245.40509766 -145.19042969 245.09863281 C-118.39607757 231.59194305 -100.44362829 207.32506082 -90.75390625 179.41015625 C-86.79710351 166.52518323 -85.70551569 153.50620563 -85.68115234 140.08813477 C-85.67110672 138.78871948 -85.6610611 137.4893042 -85.65071106 136.1505127 C-85.6237913 132.64119432 -85.60837694 129.13191515 -85.59528303 125.62252164 C-85.57948286 121.93498393 -85.55274809 118.24752446 -85.5272522 114.56004333 C-85.48075951 107.60133515 -85.4438742 100.64261174 -85.41057932 93.68382925 C-85.37214728 85.75129815 -85.32279357 77.81884622 -85.27259517 69.88638222 C-85.16971513 53.59097863 -85.08031421 37.29553079 -85 21 C-84.18142517 21.47952621 -83.36285034 21.95905243 -82.51947021 22.45310974 C-80.90446625 23.39755699 -80.90446625 23.39755699 -79.25683594 24.36108398 C-78.19076111 24.9849852 -77.12468628 25.60888641 -76.02630615 26.25169373 C-60.90775886 34.98572451 -45.62113242 41.28949033 -28.5 44.8125 C-27.50427979 45.01963623 -26.50855957 45.22677246 -25.48266602 45.44018555 C-16.86200212 47.09728036 -8.9546441 47.44033474 0 48 C0 32.16 0 16.32 0 0 Z " fill="#FE004E" transform="translate(312,99)"/>
<path d="M0 0 C20.79 0 41.58 0 63 0 C63.33 4.95 63.66 9.9 64 15 C49.15 15 34.3 15 19 15 C19.00999275 19.67684967 19.00999275 19.67684967 19.02018738 24.44818115 C19.07994286 53.07043274 19.12469971 81.69266734 19.15319599 110.31496589 C19.1569479 114.06984066 19.16083089 117.82471529 19.16479492 121.57958984 C19.16558185 122.32708643 19.16636878 123.07458301 19.16717956 123.844731 C19.18021704 135.93228478 19.20386171 148.01979555 19.23145839 160.10732386 C19.2595588 172.51943533 19.27618604 184.93152434 19.28226548 197.34366632 C19.28637233 204.99648324 19.29932171 212.64917858 19.3237494 220.30195805 C19.34155099 226.17996521 19.34335395 232.05791068 19.33932304 237.93594551 C19.34014602 240.34007323 19.34608186 242.7442057 19.35761642 245.14830589 C19.44744902 264.84353838 18.49083046 280.77916831 4.25 295.74609375 C3.13625 296.86177734 3.13625 296.86177734 2 298 C1.13375 298.88365234 1.13375 298.88365234 0.25 299.78515625 C-10.34096302 309.73964312 -24.15565532 311.59420833 -38.0390625 311.30859375 C-51.94180107 310.67712749 -63.25592333 303.41107897 -72.63671875 293.50390625 C-73.31154297 292.75947266 -73.31154297 292.75947266 -74 292 C-70.64137403 290.88045801 -70.25947297 291.05411221 -67.1875 292.375 C-55.21103015 297.11794195 -42.06198977 295.70359582 -30.3046875 290.8984375 C-16.50351355 284.35659664 -8.50193339 274.864244 -2.91015625 260.62890625 C-1.5951159 256.83052791 -0.8752387 253.56915596 -0.8613348 249.54099655 C-0.85586036 248.64824988 -0.85038591 247.75550321 -0.84474558 246.83570361 C-0.84376747 245.85905411 -0.84278936 244.88240461 -0.84178162 243.87615967 C-0.83684364 242.83551967 -0.83190566 241.79487967 -0.82681805 240.72270513 C-0.81142228 237.22496911 -0.80307676 233.72725149 -0.79467773 230.22949219 C-0.78510085 227.72646929 -0.77509088 225.22344803 -0.76467896 222.72042847 C-0.74321694 217.32606289 -0.72477663 211.93169986 -0.70907402 206.53731537 C-0.68636545 198.73793386 -0.65822399 190.93857941 -0.62875474 183.13922086 C-0.58109094 170.48540398 -0.53782347 157.83157604 -0.49731445 145.17773438 C-0.45795336 132.88540791 -0.41652567 120.59309127 -0.37231445 108.30078125 C-0.36959018 107.54313527 -0.36686591 106.78548928 -0.36405908 106.00488433 C-0.3503795 102.20401265 -0.33665925 98.40314111 -0.32291877 94.60226965 C-0.20897302 63.06819906 -0.10296825 31.53410882 0 0 Z " fill="#00F2EA" transform="translate(164,0)"/>
<path d="M0 0 C15.84 0 31.68 0 48 0 C48 44.22 48 88.44 48 134 C32.16 134 16.32 134 0 134 C0 89.78 0 45.56 0 0 Z " fill="#000000" transform="translate(553,172)"/>
<path d="M0 0 C0 4.95 0 9.9 0 15 C-1.959375 15.0825 -3.91875 15.165 -5.9375 15.25 C-30.08442448 17.02694102 -52.23564579 26.8614801 -71 42 C-71.77988281 42.61359375 -72.55976562 43.2271875 -73.36328125 43.859375 C-91.89742296 59.26608605 -106.05324526 85.07928507 -109 109 C-109.10828125 109.7321875 -109.2165625 110.464375 -109.328125 111.21875 C-113.09371927 140.94712582 -105.95491415 172.21266774 -87.49487305 196.06542969 C-86.07782295 197.84004019 -84.64012191 199.59428907 -83.1875 201.33984375 C-81 204 -81 204 -80 206 C-84.6784771 204.54447379 -87.77059802 201.81425683 -91.25 198.5 C-91.82282715 197.95811035 -92.3956543 197.4162207 -92.98583984 196.85791016 C-94.66901052 195.2502815 -96.33672248 193.62817421 -98 192 C-98.81210938 191.21367187 -99.62421875 190.42734375 -100.4609375 189.6171875 C-120.12204193 169.24629591 -129.22522147 141.36526786 -129.25 113.5625 C-129.25067474 112.88637665 -129.25134949 112.2102533 -129.25204468 111.51364136 C-129.23637922 101.65538318 -128.8528548 92.50566601 -126 83 C-125.67128906 81.80503906 -125.34257813 80.61007813 -125.00390625 79.37890625 C-120.49313371 64.37941693 -112.91058085 51.07622629 -103 39 C-102.42765625 38.27554688 -101.8553125 37.55109375 -101.265625 36.8046875 C-96.52978295 31.05402215 -90.88815283 26.52682501 -85 22 C-84.21882813 21.3915625 -83.43765625 20.783125 -82.6328125 20.15625 C-59.89560367 3.31387309 -28.04722052 -5.6094441 0 0 Z " fill="#00F0E8" transform="translate(129,132)"/>
<path d="M0 0 C14 0 14 0 18 1 C18 22.12 18 43.24 18 65 C14.37 64.34 10.74 63.68 7 63 C-7.97941974 62.03978079 -20.80964583 66.54171119 -32.25 76.1875 C-42.25629508 85.70142183 -47.88660439 97.48325274 -48.47021484 111.31201172 C-48.63452269 123.38190441 -45.44787605 133.77324577 -39 144 C-43.93139106 142.69570935 -47.25798674 140.55921238 -50.9375 137.125 C-51.45820068 136.6417627 -51.97890137 136.15852539 -52.51538086 135.66064453 C-60.91438839 127.53189886 -66.84834181 116.52141602 -67.43359375 104.73046875 C-67.45717613 102.88296254 -67.45790154 101.03504407 -67.4375 99.1875 C-67.42920166 98.21772217 -67.42090332 97.24794434 -67.41235352 96.2487793 C-67.09021882 82.57123802 -62.08160009 71.51879353 -52.9375 61.3125 C-41.24998857 50.43734923 -27.28149167 46.64843672 -11.640625 46.69921875 C-8 47 -8 47 0 49 C0 32.83 0 16.66 0 0 Z " fill="#FD004E" transform="translate(129,146)"/>
<path d="M0 0 C25.55238906 -0.65240142 48.60367868 4.38432457 68 22 C68.62132812 22.52851563 69.24265625 23.05703125 69.8828125 23.6015625 C83.32284911 35.79136315 91.75780861 54.77211376 93.21972656 72.69360352 C94.29121343 98.06488183 87.87385958 118.82515957 71 138 C57.80876612 151.9240802 38.06901788 161.64270729 18.77734375 162.1796875 C15.18166743 162.21437786 11.59342272 162.13588573 8 162 C8 161.67 8 161.34 8 161 C8.93199219 160.84144531 9.86398437 160.68289063 10.82421875 160.51953125 C33.38223475 156.39111781 52.27094624 146.14782163 65.86328125 127.265625 C73.45902848 115.65676817 79.40955245 102.04773118 80 88 C80.07734375 86.35451172 80.07734375 86.35451172 80.15625 84.67578125 C80.70830832 62.29441673 72.68474566 41.62800771 57.41503906 25.2512207 C42.28199925 9.82716089 21.36378557 1.90524515 0 1 C0 0.67 0 0.34 0 0 Z " fill="#FC004E" transform="translate(1015,145)"/>
<path d="M0 0 C0 0.33 0 0.66 0 1 C-0.83660156 1.08636719 -1.67320312 1.17273438 -2.53515625 1.26171875 C-21.28819978 3.52537517 -37.79518048 10.43516852 -52 23 C-52.91845703 23.77730469 -52.91845703 23.77730469 -53.85546875 24.5703125 C-67.7355885 37.21170303 -75.94926958 57.52326973 -77.28125 75.875 C-78.08996013 98.75194928 -70.51123979 118.68900025 -55.8125 136.1875 C-42.7984848 150.11831009 -24.63522489 158.15686146 -6 161 C-6 161.33 -6 161.66 -6 162 C-29.0108064 163.31281938 -48.85444221 155.11212237 -66 140 C-79.84436461 127.01287159 -89.60151248 107.29270552 -90.3359375 88.21484375 C-90.67562194 64.90769115 -86.1624 44.61485277 -70 27 C-69.33613281 26.24460938 -68.67226563 25.48921875 -67.98828125 24.7109375 C-49.9651087 5.32186832 -25.53237905 -0.36017463 0 0 Z " fill="#00F0E8" transform="translate(1010,145)"/>
<path d="M0 0 C5.37522597 4.62373807 8.88828162 9.94351384 10 17 C10.23428597 23.54982071 8.98255386 29.697514 5 35 C-1.97111961 41.56276951 -8.27962397 43.49075496 -17.7734375 43.30859375 C-24.07215709 42.70617384 -28.06601009 40.28613785 -32.3125 35.6875 C-37.36801554 29.18558355 -38.92894672 23.10601457 -38 15 C-36.58068298 8.78361151 -33.58042068 3.51836331 -28.26171875 -0.22265625 C-19.26670932 -5.5965484 -8.8582818 -5.83430434 0 0 Z " fill="#000000" transform="translate(591,113)"/>
<path d="M0 0 C5.61 0 11.22 0 17 0 C17.226875 2.64 17.45375 5.28 17.6875 8 C19.55627378 25.92227496 25.86292796 44.15030141 39 57 C38.01 57.495 38.01 57.495 37 58 C35.62392469 56.93889304 34.24920168 55.87603232 32.875 54.8125 C32.10929687 54.22082031 31.34359375 53.62914062 30.5546875 53.01953125 C29.71164062 52.35308594 28.86859375 51.68664062 28 51 C27.01 50.21753906 26.02 49.43507812 25 48.62890625 C12.18897219 37.40257589 3.36164053 20.56492602 0 4 C0 2.68 0 1.36 0 0 Z " fill="#FC004D" transform="translate(228,14)"/>
<path d="M0 0 C4.33132363 1.36332325 8.37579243 3.0440262 12.5 4.9375 C23.27921707 9.68778548 34.29763256 11.28644101 46 12 C46 16.62 46 21.24 46 26 C27.93183939 23.45916491 12.80753442 13.68104025 0 1 C0 0.67 0 0.34 0 0 Z " fill="#00ECE5" transform="translate(267,73)"/>
</svg>
